<?xml version="1.0" encoding="UTF-8" standalone="no"?>
<!DOCTYPE svg PUBLIC "-//W3C//DTD SVG 1.1//EN" "http://www.w3.org/Graphics/SVG/1.1/DTD/svg11.dtd">
<svg xmlns="http://www.w3.org/2000/svg">
<metadata>
This is a custom SVG webfont generated by Font Squirrel.
Copyright   : Copyright c 2009 by GType Designed and digitized by Nick Cooke All rights reserved
Designer    : Nick Cooke  44 0 19 4346 1808 nickgtypecom
Foundry     : GType Designed and digitized by Nick Cooke
</metadata>
<defs>
<font id="webfontI4Pr0yzS" horiz-adv-x="1146">
<font-face units-per-em="2048" ascent="1536" descent="-512"/>
<missing-glyph horiz-adv-x="630"/>
<glyph unicode=" " horiz-adv-x="630"/>
<glyph unicode="	" horiz-adv-x="630"/>
<glyph unicode=" " horiz-adv-x="630"/>
<glyph unicode="!" horiz-adv-x="643" d="M473 1356l-33 -750q-4 -68 -28.5 -100.5t-81.5 -32.5q-55 0 -80 33t-29 100l-31 750q-4 66 34 110.5t106 44.5q70 0 108.5 -44.5t34.5 -110.5zM510 160q0 -74 -52 -126t-128 -52q-74 0 -126 52t-52 126q0 76 52 128t126 52q76 0 128 -52t52 -128z"/>
<glyph unicode="&quot;" horiz-adv-x="858" d="M754 1362l-25 -225q-6 -61 -28.5 -90t-71.5 -29q-51 0 -74 28.5t-31 90.5l-24 225q-6 61 27.5 105t101 44t99.5 -44t26 -105zM330 1362l-25 -225q-8 -61 -30.5 -90t-71.5 -29q-51 0 -72.5 27.5t-30.5 91.5l-24 225q-6 61 26.5 105t100 44t100.5 -44t27 -105z"/>
<glyph unicode="#" horiz-adv-x="1490" d="M1448 1034q0 -53 -37 -91t-90 -38h-154l-49 -319h115q53 0 90 -37t37 -90t-37 -91t-90 -38h-154l-35 -244q-10 -51 -52 -81t-93 -21.5t-82 50.5t-22 93l32 203h-292l-37 -244q-8 -51 -51.5 -81t-94.5 -21.5t-81.5 50.5t-22.5 93l31 203h-115q-53 0 -90 38t-37 91t37 90 t90 37h153l50 319h-115q-53 0 -90 38t-37 91t37 89t90 36h154l36 246q8 51 50.5 82t93.5 22.5t81.5 -50.5t22.5 -93l-31 -207h293l37 246q8 51 50 82t93.5 22.5t83 -50.5t23.5 -93l-33 -207h115q53 0 90 -37t37 -88zM913 905h-292l-50 -319h295z"/>
<glyph unicode="$" d="M1090 465q0 -201 -114 -321.5t-308 -151.5v-109q0 -45 -32 -76.5t-77 -31.5q-47 0 -77.5 30.5t-30.5 77.5v101q-170 6 -299 55q-94 33 -95 129q0 55 34 94t87 39q25 0 76 -18.5t86 -26.5q76 -20 172 -20q295 0 295 198q0 68 -42 106t-159 68q-27 8 -109.5 26.5t-145 38 t-105.5 44.5q-178 100 -178 323q0 186 105.5 305t277.5 152v113q0 45 31.5 76.5t76.5 31.5t77 -31.5t32 -76.5v-103q139 -4 243 -43q96 -33 97 -127q0 -53 -35 -93t-94 -40q-23 0 -67 14.5t-71 20.5q-61 14 -141 14q-119 0 -184.5 -46t-65.5 -130q0 -76 44 -111.5t157 -64.5 l90 -19q72 -15 109.5 -24.5t91 -28t84.5 -38.5q164 -105 164 -326z"/>
<glyph unicode="%" horiz-adv-x="1226" d="M582 1157q0 -111 -68 -171t-168 -60q-102 0 -171 60.5t-69 170.5v125q0 109 69 169t171 60q100 0 168 -60t68 -169v-125zM940 1405l-510 -1372q-10 -31 -40 -44.5t-60 -2.5q-31 12 -44.5 41.5t-2.5 60.5l508 1372q12 31 41.5 44.5t62.5 0.5q29 -10 42 -40.5t3 -59.5z M1120 211q0 -109 -68.5 -169t-170.5 -60q-100 0 -169 60t-69 169v125q0 111 68.5 171t169.5 60q102 0 170.5 -60.5t68.5 -170.5v-125zM418 1153v129q0 82 -72 82q-74 0 -74 -82v-129q0 -82 74 -82q72 0 72 82zM954 209v129q0 82 -73 82q-72 0 -72 -82v-129q0 -82 72 -82 q73 0 73 82z"/>
<glyph unicode="&amp;" horiz-adv-x="1300" d="M1249 115q0 -55 -39 -94t-94 -39q-68 0 -108 55l-66 86q-172 -141 -401 -141q-213 0 -327 124.5t-114 305.5q0 244 281 434q-131 176 -131 323q0 172 114.5 257t274.5 85q152 0 246 -55q125 -70 125 -178q0 -55 -38 -93t-89 -38q-35 0 -66 20q-6 8 -23.5 21.5t-21.5 17.5 q-70 66 -131 66q-45 0 -78 -31t-33 -88q0 -63 91 -180l325 -420q27 63 33 137q8 51 44 84t85 33q53 0 92 -38t39 -91q-2 -63 -35 -167.5t-82 -184.5l97 -125q30 -45 30 -86zM788 322l-253 329q-170 -100 -170 -229q0 -90 53 -141.5t141 -51.5q127 1 229 93z"/>
<glyph unicode="'" horiz-adv-x="458" d="M354 1362l-22 -225q-6 -61 -28.5 -90t-74 -29t-74 28.5t-28.5 90.5l-23 225q-8 61 25 105t100.5 44t100 -44t24.5 -105z"/>
<glyph unicode="(" horiz-adv-x="698" d="M582 -233q0 -61 -39 -100.5t-94 -39.5q-70 0 -113 68q-250 381 -250 962.5t250 964.5q43 68 113 68q55 0 94 -39t39 -101q0 -53 -25 -100q-188 -354 -188 -793q0 -440 188 -790q25 -47 25 -100z"/>
<glyph unicode=")" horiz-adv-x="698" d="M612 657.5q0 -581.5 -247 -962.5q-45 -68 -113 -68q-55 0 -95 39t-40 101q0 55 26 100q188 346 188.5 790.5t-188.5 792.5q-27 45 -26 100q0 59 40 99.5t95 40.5q68 0 113 -68q247 -383 247 -964.5z"/>
<glyph unicode="*" horiz-adv-x="995" d="M893 1221q18 -49 -6.5 -84t-71.5 -43l-190 -43l131 -144q31 -33 30.5 -77t-43.5 -74q-45 -29 -85 -17.5t-62 52.5l-98 167l-99 -167q-23 -41 -62.5 -52.5t-84.5 17.5q-43 31 -43 74.5t31 76.5l129 144l-189 43q-47 8 -71.5 42.5t-8.5 84.5q16 51 58.5 65t81.5 -6l178 -78 l-19 193q-6 47 19.5 81.5t79 34.5t78 -34.5t20.5 -81.5l-21 -193l179 78q41 20 83 6t56 -65z"/>
<glyph unicode="+" horiz-adv-x="1189" d="M1059 583.5q0 -51.5 -38 -89t-89 -37.5h-209v-211q0 -53 -38 -90t-91 -37q-51 0 -88 37t-37 90v211h-211q-53 0 -90 37.5t-37 89t37 89.5t90 38h211v209q0 53 37 90t88 37q53 0 91 -37t38 -90v-209h209q51 0 89 -38t38 -89.5z"/>
<glyph unicode="," horiz-adv-x="606" d="M494 117q0 -104 -36 -191.5t-87.5 -135.5t-97.5 -74.5t-72 -26.5q-66 0 -66 61q0 27 20.5 50.5t46 39t51.5 51t34 82.5q-68 8 -115 60.5t-47 124.5q0 76 54 130t130 54q84 0 134.5 -63.5t50.5 -161.5z"/>
<glyph unicode="-" horiz-adv-x="1042" d="M920 602q0 -53 -38 -90t-89 -37h-543q-53 0 -90 37t-37 90q0 51 37 88t90 37h543q51 0 89 -37t38 -88z"/>
<glyph unicode="." horiz-adv-x="610" d="M485 160q0 -74 -53 -126t-127 -52q-76 0 -128 52t-52 126q0 76 52 128t128 52q74 0 127 -52t53 -128z"/>
<glyph unicode="/" horiz-adv-x="733" d="M737 1483l-497 -1555q-16 -49 -62.5 -72.5t-95.5 -7.5q-51 16 -74.5 62.5t-7.5 97.5l498 1553q14 51 61 74.5t98 6.5q49 -16 72.5 -63t7.5 -96z"/>
<glyph unicode="0" d="M1065 516q0 -233 -130 -383.5t-361.5 -150.5t-361.5 150.5t-130 383.5v461q0 233 130 383.5t361.5 150.5t361.5 -150.5t130 -383.5v-461zM782 508v475q0 135 -56 202.5t-152.5 67.5t-152.5 -67.5t-56 -202.5v-475q0 -135 55 -202.5t153.5 -67.5t153.5 67.5t55 202.5z"/>
<glyph unicode="1" d="M1083 135q0 -57 -38.5 -96t-94.5 -39h-721q-55 0 -94 39t-39 96q0 53 39 92t94 39h289v862l-250 -167q-45 -29 -100 -18t-86 58q-29 45 -17.5 99.5t58.5 85.5l452 299q43 27 84 26q57 0 99.5 -42t42.5 -99v-1104h149q55 0 94 -39t39 -92z"/>
<glyph unicode="2" d="M1036 135q0 -57 -40 -96t-95 -39h-670q-61 0 -98 38t-37 97q0 276 232 475q51 45 182 138.5t187.5 162t56.5 154.5q0 80 -48.5 135t-144.5 55q-98 0 -182 -47q-14 -8 -46 -29.5t-51.5 -29.5t-43.5 -8q-53 0 -93.5 39t-40.5 94q0 66 50 104q168 133 417 133 q231 0 348 -135t117 -311q0 -121 -54 -217t-137 -164t-169 -127t-164 -134t-109 -155h498q57 0 96 -39t39 -94z"/>
<glyph unicode="3" d="M1006 410q0 -176 -131.5 -302t-370.5 -126q-242 0 -359 112q-49 45 -49 103q0 51 34 86.5t83 35.5q31 0 106 -49q72 -43 173 -43q106 0 167.5 58.5t61.5 158.5q0 199 -234 199q-143 0 -143 121q0 63 44 92t106 29q233 4 233 182q0 84 -47 139.5t-152 55.5q-96 0 -176 -50 q-8 -4 -22.5 -14t-22.5 -14l-20 -10q-12 -6 -23.5 -8.5t-25.5 -2.5q-45 0 -79 31t-34 88q0 74 72 125q117 104 344 104q223 0 332.5 -124.5t109.5 -278.5q0 -248 -221 -336q244 -83 244 -362z"/>
<glyph unicode="4" d="M1087 377q0 -53 -37.5 -92t-88.5 -39h-54v-127q0 -57 -40 -97t-97 -40t-97 39.5t-40 97.5v127h-445q-53 0 -91 36.5t-38 94.5q0 29 17 65l416 985q23 53 77 75t105 -1q51 -20 73.5 -75.5t0.5 -108.5l-345 -809h230v166q0 57 40 97t97 40t97 -40t40 -97v-166h54 q53 0 89.5 -38t36.5 -93z"/>
<glyph unicode="5" d="M1022 473q0 -205 -126 -348t-368 -143q-203 0 -331 84q-70 47 -70 120q0 53 37 94.5t90 41.5q43 0 78 -25q92 -66 196 -66q111 0 161 67t50 175q0 115 -50 171t-126 56q-78 0 -153 -55l-23 -16l-21 -16q-7 -5 -18.5 -11t-23 -8t-23.5 -2q-59 0 -97 38t-36 101l20 631 q2 57 43 94t93 37h497q53 0 92 -40t39 -95q0 -53 -39 -93t-92 -40h-377l-12 -316q74 31 156 31q199 0 316.5 -124t117.5 -343z"/>
<glyph unicode="6" d="M1055 463q0 -219 -137.5 -350t-354.5 -131q-223 0 -348 161.5t-125 401t130 481.5t325 440q45 45 100 45q61 0 101 -42t40 -99q0 -53 -43 -96q-178 -178 -270 -377q57 23 121 23q195 0 328 -119t133 -338zM772 455q0 102 -53 161.5t-156 59.5q-98 0 -186 -62 q-4 -45 -4 -69q0 -158 58 -232.5t138 -74.5q102 0 152.5 58.5t50.5 158.5z"/>
<glyph unicode="7" d="M1055 1358q0 -35 -15 -72l-469 -1214q-23 -53 -76 -78t-106 -4q-53 23 -77.5 76t-4.5 108l422 1051h-526q-55 0 -95 39t-40 94t38.5 95t96.5 40h719q55 0 94 -40t39 -95z"/>
<glyph unicode="8" d="M1075 401q0 -180 -132 -299.5t-365 -119.5q-244 0 -375 113.5t-131 301.5q0 121 63.5 210t192.5 163q-190 125 -191 344q0 186 119 291.5t313.5 105.5t312 -106.5t117.5 -276.5q0 -188 -186 -317q125 -70 193.5 -162t68.5 -248zM733 1094q0 82 -44 127t-116 45 q-74 0 -118.5 -45t-44.5 -121q0 -72 47 -116t137 -81q139 80 139 191zM793 424q0 86 -58.5 133t-185.5 100q-195 -92 -195 -225q0 -94 60.5 -147.5t154.5 -53.5q100 0 162 52.5t62 140.5z"/>
<glyph unicode="9" d="M1059 946q0 -240 -130 -481.5t-325 -439.5q-43 -43 -98 -43q-63 0 -103.5 40.5t-40.5 98.5q0 53 44 96q176 176 270 379q-55 -25 -121 -25q-195 0 -328 119t-133 340q0 219 137.5 350t354.5 131q223 0 348 -161.5t125 -403.5zM776 946q0 158 -57 232.5t-139 74.5 q-203 0 -203 -217q0 -100 53 -159.5t156 -59.5q104 0 186 62q4 44 4 67z"/>
<glyph unicode=":" horiz-adv-x="610" d="M485 895q0 -74 -53 -126t-127 -52q-76 0 -128 52t-52 126q0 76 52 128t128 52q74 0 127 -52t53 -128zM485 160q0 -74 -53 -126t-127 -52q-76 0 -128 52t-52 126q0 76 52 128t128 52q74 0 127 -52t53 -128z"/>
<glyph unicode=";" horiz-adv-x="610" d="M485 895q0 -74 -53 -126t-127 -52q-76 0 -128 52t-52 126q0 76 52 128t128 52q74 0 127 -52t53 -128zM494 117q0 -104 -36 -191.5t-86 -135.5t-96.5 -74.5t-74.5 -26.5q-66 0 -66 61q0 27 20.5 50.5t46 39t52.5 51t35 82.5q-70 8 -117 60.5t-47 124.5q0 76 54 130t130 54 q84 0 134.5 -63.5t50.5 -161.5z"/>
<glyph unicode="&lt;" horiz-adv-x="1206" d="M1055 156q-23 -41 -69 -55.5t-91 8.5l-696 348q-63 37 -64 104q0 72 64 105l696 350q45 20 91 6t69 -55q23 -43 8.5 -90.5t-55.5 -69.5l-504 -246l504 -246q43 -20 56.5 -68t-9.5 -91z"/>
<glyph unicode="=" horiz-adv-x="1167" d="M1049 846q0 -51 -37 -89t-90 -38h-674q-51 0 -89 38t-38 89t38 89t89 38h674q53 0 90 -38t37 -89zM1049 358q0 -53 -37 -90t-90 -37h-674q-53 0 -90 37t-37 90q0 51 38 89t89 38h674q53 0 90 -38t37 -89z"/>
<glyph unicode="&gt;" horiz-adv-x="1206" d="M1071 561q0 -68 -63 -104l-697 -348q-47 -20 -92 -7t-67 54q-23 43 -9.5 91t56.5 68l503 246l-503 246q-43 20 -56.5 68.5t9.5 91.5q23 41 68.5 55t90.5 -6l697 -350q63 -33 63 -105z"/>
<glyph unicode="?" horiz-adv-x="1013" d="M907 1133q0 -115 -54 -193t-153 -156q-94 -74 -119.5 -113.5t-25.5 -97.5q0 -49 -36 -82.5t-91 -33.5q-57 0 -93 34.5t-36 96.5q0 96 31.5 156.5t126.5 134.5q8 6 30 24l30 25l26 21q18 15 24 23l19 21q12 14 17 24.5l11.5 25t8.5 28.5t2 31q0 88 -49.5 127t-126.5 39 q-84 0 -170 -62q-37 -18 -66 -18q-59 0 -94 36t-35 81q0 76 90 131q129 74 307 73q168 0 297 -95t129 -281zM608 160q0 -74 -52 -126t-128 -52q-74 0 -126 52t-52 126q0 76 52 128t126 52q76 0 128 -52t52 -128z"/>
<glyph unicode="@" horiz-adv-x="1681" d="M1552 786q0 -195 -106.5 -333t-286.5 -138q-154 0 -217 121q-84 -117 -221 -117q-104 0 -156.5 73t-52.5 183q0 184 105.5 319.5t267.5 135.5q94 0 200 -31q68 -20 52 -100l-45 -199q-10 -51 -11 -114q0 -123 99 -123q96 0 152.5 95t56.5 222q0 207 -129.5 338 t-401.5 131q-143 0 -254.5 -59.5t-176.5 -153.5t-97.5 -198.5t-32.5 -206.5q0 -248 126 -395.5t384 -147.5q88 0 188 18q27 6 61 17.5t48 11.5q37 0 56.5 -21.5t19.5 -52.5q0 -59 -86 -84q-141 -39 -287 -38q-328 0 -502 186t-174 498q0 141 46 277t133 249t228.5 181.5 t315.5 68.5q186 0 326.5 -52.5t219.5 -142.5t115.5 -194.5t36.5 -223.5zM942 858q-37 8 -65 8q-68 0 -118 -89t-50 -187q0 -78 61 -78q90 0 129 162z"/>
<glyph unicode="A" horiz-adv-x="1183" d="M1157 154q4 -21 5 -39q0 -50 -33 -85q-44 -48 -111 -48q-49 0 -86 27.5t-49 82.5q-27 119 -56 217h-479q-31 -119 -53 -217q-12 -53 -50 -81.5t-83 -28.5q-63 0 -108 48q-32 35 -32 85q0 19 5 39q139 606 383 1212q59 147 180 147q127 0 186 -147q242 -594 381 -1212z M760 561q-74 252 -172 508q-96 -258 -172 -508h344z"/>
<glyph unicode="B" horiz-adv-x="1314" d="M1200 385q0 -174 -110.5 -279.5t-350.5 -105.5h-438q-59 0 -100 41t-41 100v1211q0 57 41 99t100 42h387q233 0 344 -107.5t111 -265.5v-57q0 -215 -182 -295q115 -37 177 -127t62 -199v-57zM860 1028v51q0 70 -45 111t-131 41h-242v-361h191q227 0 227 158zM920 422v41 q0 72 -53.5 116t-147.5 44h-277v-363h291q94 0 140.5 45t46.5 117z"/>
<glyph unicode="C" horiz-adv-x="1118" d="M1057 1311q0 -49 -34 -87t-95 -40q-29 0 -90 33q-57 41 -156 40q-135 0 -201.5 -96t-66.5 -307v-219q0 -217 63.5 -307t194.5 -90q104 0 176 45q57 31 88 30q49 0 83 -33.5t34 -84.5q0 -66 -56 -107q-55 -53 -148 -79.5t-177 -26.5q-281 0 -411 172t-130 477v231 q0 195 52.5 335t178 227t320.5 87q203 0 315 -96q60 -43 60 -104z"/>
<glyph unicode="D" horiz-adv-x="1345" d="M1214 553q0 -78 -10 -145.5t-44 -146.5t-89 -133t-153.5 -91t-229.5 -37h-387q-59 0 -100 41t-41 100v1211q0 57 41 99t100 42h387q131 0 229.5 -37t153.5 -92t89 -134t44 -146.5t10 -145.5v-385zM932 553v381q0 143 -57.5 217t-206.5 74h-226v-961h226q150 0 207 73 t57 216z"/>
<glyph unicode="E" horiz-adv-x="1161" d="M1092 135q0 -57 -39 -96t-95 -39h-665q-55 0 -94 39t-39 96v1223q0 55 39 95t94 40h637q57 0 96 -40t39 -95t-39 -94t-96 -39h-488v-348h443q53 0 92 -39t39 -92.5t-39 -91.5t-92 -38h-443v-348h516q55 0 94.5 -39t39.5 -94z"/>
<glyph unicode="F" horiz-adv-x="1077" d="M1051 1358q0 -55 -39 -94t-94 -39h-476v-348h392q53 0 91 -39t38 -92.5t-38 -91.5t-91 -38h-392v-493q0 -57 -41 -99t-100 -42t-100 40.5t-41 100.5v1235q0 55 39 95t94 40h625q55 0 94 -40t39 -95z"/>
<glyph unicode="G" horiz-adv-x="1286" d="M1176 498q0 -104 -28 -194.5t-85 -164t-157.5 -115.5t-233.5 -42q-281 0 -411 172t-130 477v231q0 195 52.5 335t178 227t320.5 87q213 0 324 -98q61 -43 61 -106q0 -51 -34 -87t-95 -36h-4q-34 0 -94 33q-66 41 -158 40q-135 0 -201.5 -96t-66.5 -307v-219 q0 -217 63.5 -308t194.5 -91q127 0 179 66.5t52 186.5v64h-135q-53 0 -91 39t-38 92t38 92t91 39h274q57 0 95.5 -40t38.5 -101v-176z"/>
<glyph unicode="H" horiz-adv-x="1413" d="M1253 123q0 -59 -41 -100t-98 -41t-99 42t-42 99v485h-531v-485q0 -57 -41 -99t-100 -42t-100 40.5t-41 100.5v1247q0 57 41 99t100 42q57 0 99 -42t42 -99v-512h531v512q0 57 42 99t99 42t98 -42t41 -99v-1247z"/>
<glyph unicode="I" horiz-adv-x="600" d="M442 123q0 -57 -41 -99t-100 -42t-100 40.5t-41 100.5v1247q0 57 41 99t100 42q57 0 99 -42t42 -99v-1247z"/>
<glyph unicode="J" horiz-adv-x="952" d="M819 551q0 -569 -526 -569q-96 0 -172 12q-57 8 -86 45t-29 84q0 59 34 97t95 38q25 0 64 -8q31 -2 94 -2q137 0 190.5 67.5t53.5 235.5v819q0 57 40.5 99t100.5 42q57 0 99 -42t42 -99v-819z"/>
<glyph unicode="K" horiz-adv-x="1224" d="M1178 186q18 -36 17 -68q0 -39 -26 -74q-47 -62 -122 -62q-82 0 -123 79q-156 307 -351 596l-131 -151v-383q0 -57 -41 -99t-100 -42t-100 40.5t-41 100.5v1247q0 57 41 99t100 42q57 0 99 -42t42 -99v-491l463 581q41 51 105 51q51 0 90 -32q45 -37 50 -96q1 -7 1 -13 q0 -50 -35 -86l-352 -407q219 -312 414 -691z"/>
<glyph unicode="L" horiz-adv-x="1110" d="M1085 135q0 -57 -38.5 -96t-96.5 -39h-657q-55 0 -94 39t-39 96v1235q0 57 41 99t100 42q57 0 99 -42t42 -99v-1102h508q57 0 96 -39t39 -94z"/>
<glyph unicode="M" horiz-adv-x="1648" d="M1489 113q0 -55 -38 -93t-91 -38q-55 0 -93 38.5t-38 92.5v778l-279 -580q-41 -84 -127 -84q-88 0 -127 82l-278 582v-780q0 -53 -38 -91t-91 -38t-91 37.5t-38 91.5v1269q0 55 39 93t94 38q96 0 137 -84l395 -804l400 813q37 76 131 75q57 0 95 -38.5t38 -92.5v-1267z "/>
<glyph unicode="N" horiz-adv-x="1376" d="M1217 111q0 -55 -38 -92t-98 -37q-92 0 -137 67l-526 875v-813q0 -53 -38 -91t-91 -38t-91 37.5t-38 91.5v1271q0 55 36.5 92t100.5 37q94 0 137 -73l524 -871v815q0 53 38 91t91.5 38t91.5 -37.5t38 -91.5v-1271z"/>
<glyph unicode="O" horiz-adv-x="1327" d="M1198 535q0 -111 -28.5 -206.5t-88 -176t-167 -126.5t-251 -46t-251 46t-167 126.5t-87 176t-27.5 206.5v423q0 111 27.5 206.5t87 175t167 125.5t251 46t251 -46t167 -125.5t88 -175t28.5 -206.5v-423zM915 535v423q0 141 -56 218t-195.5 77t-194.5 -75.5t-55 -219.5 v-423q0 -143 55 -221t194.5 -78t195.5 78t56 221z"/>
<glyph unicode="P" horiz-adv-x="1232" d="M1155 967q0 -188 -120 -301t-335 -113h-258v-430q0 -57 -41 -99t-100 -42t-100 40.5t-41 100.5v1229q0 57 41 99t100 42h387q244 0 355.5 -123t111.5 -299v-104zM874 971v94q0 162 -210 162h-222v-416h248q96 0 140 45t44 115z"/>
<glyph unicode="Q" horiz-adv-x="1327" d="M1233 -41q-37 -39 -85 -41h-5q-45 0 -86 37l-99 96q-121 -72 -294 -71q-143 0 -251 46t-167.5 126.5t-87 176t-27.5 206.5v423q0 111 27.5 206.5t87 175t167 125.5t251.5 46q276 0 405 -158.5t129 -394.5v-423q0 -180 -70 -308l101 -92q41 -41 41 -89t-37 -87zM915 535 v423q0 141 -56 219t-195.5 78t-195.5 -76.5t-56 -220.5v-423q0 -143 56 -221t196 -78q57 0 94 18l-25 27q-29 29 -29 68q0 46 35 81q27 29 63 37q10 2 19 2q25 0 47 -16l29 -23q18 44 18 105z"/>
<glyph unicode="R" horiz-adv-x="1271" d="M1163 180q15 -34 15 -64q0 -41 -27 -75q-47 -59 -121 -59q-86 0 -125 84q-125 274 -274 516h-189v-459q0 -57 -41 -99t-100 -42t-100 40.5t-41 100.5v1229q0 57 41 99t100 42h385q233 0 354 -107.5t121 -310.5v-80q0 -129 -61.5 -222t-173.5 -138q128 -222 237 -455z M879 995v80q0 154 -199 154h-238v-391h230q92 0 149.5 39.5t57.5 117.5z"/>
<glyph unicode="S" horiz-adv-x="1200" d="M1122 465q0 -233 -152.5 -358t-400.5 -125q-229 0 -385 57q-96 33 -96 131q0 53 34 92t89 39q25 0 76 -18.5t86 -26.5q78 -18 170 -18q297 0 297 196q0 68 -42 106t-161 68q-27 8 -110 26.5t-145.5 38t-105.5 44.5q-176 100 -176 323q0 221 145.5 346t364.5 125 q193 0 334 -47q96 -33 96 -127q0 -53 -35.5 -94t-95.5 -41q-20 0 -64 15.5t-71 21.5q-61 14 -141 14q-119 0 -185.5 -46t-66.5 -130q0 -76 45 -110.5t156 -63.5q31 -8 97 -23l106 -25q40 -9 89.5 -27.5t79.5 -39.5q168 -104 168 -323z"/>
<glyph unicode="T" horiz-adv-x="1232" d="M1206 1355.5q0 -57.5 -40 -97t-95 -39.5h-313v-1096q0 -57 -41 -99t-100.5 -42t-100.5 42t-41 99v1096h-313q-55 0 -95 39.5t-40 97t39.5 97.5t95.5 40h909q55 0 95 -40t40 -97.5z"/>
<glyph unicode="U" horiz-adv-x="1327" d="M1198 485q0 -221 -136 -362t-398.5 -141t-397.5 141t-135 362v885q0 59 41 100t98.5 41t99.5 -40.5t42 -100.5v-872q0 -270 251.5 -270.5t251.5 270.5v872q0 57 42 99t99.5 42t99.5 -42t42 -99v-885z"/>
<glyph unicode="V" horiz-adv-x="1179" d="M1153 1341q-162 -557 -391 -1212q-53 -147 -176 -147q-127 0 -176 149q-231 674 -381 1198q-7 25 -8 48q0 47 32 82q47 52 117 52q45 0 81 -26.5t48 -77.5q166 -573 295 -958q102 293 301 964q27 98 123 98q66 0 109 -49q31 -35 31 -80q0 -20 -5 -41z"/>
<glyph unicode="W" horiz-adv-x="1816" d="M1782 1380q0 -8 -4 -37q-135 -629 -297 -1202q-43 -160 -183 -159q-61 0 -111 40.5t-71 114.5q-96 344 -209 817q-86 -379 -207 -817q-20 -74 -70 -114.5t-112 -40.5q-137 0 -184 159q-162 588 -295 1202q-4 14 -4 37q0 59 43 95t98 36q45 0 82 -28.5t49 -81.5 q100 -494 221 -959q125 475 213 901q37 168 168 168q129 0 166 -165q82 -403 211 -904q119 451 223 959q10 53 47 81.5t84 28.5q55 0 98.5 -36t43.5 -95z"/>
<glyph unicode="X" horiz-adv-x="1140" d="M1135 115q0 -55 -44 -94t-100 -39q-72 0 -112 69q-100 176 -306 484q-164 -236 -309 -482q-37 -72 -112 -71q-57 0 -101.5 38.5t-44.5 96.5q0 39 21 73q135 233 381 588q-209 305 -330 531q-18 37 -19 67q0 55 44 95t102 40q72 0 112 -73q100 -186 252 -418 q139 207 254 416q37 76 113 75q57 0 102 -39.5t45 -97.5q0 -35 -20 -69q-123 -231 -328 -531q252 -369 379 -586q21 -38 21 -73z"/>
<glyph unicode="Y" horiz-adv-x="1075" d="M1075 1378q0 -23 -14 -59q-150 -338 -383 -770v-426q0 -57 -42 -99t-99 -42q-59 0 -100.5 40.5t-41.5 100.5v426q-231 426 -381 766q-14 29 -14 59q0 59 45 98t102 39q82 0 121 -84q98 -231 273 -563q174 336 274 566q39 82 119 81q55 0 98 -38t43 -95z"/>
<glyph unicode="Z" horiz-adv-x="1140" d="M1090 135q0 -57 -39 -96t-95 -39h-770q-57 0 -95 39t-38 96q0 63 43 131l611 959h-519q-53 0 -92 39t-39 94t39 95t92 40h766q61 0 96 -38t35 -97q0 -57 -43 -123l-616 -967h530q55 0 94.5 -39t39.5 -94z"/>
<glyph unicode="[" horiz-adv-x="688" d="M588 -241.5q0 -55.5 -40 -94.5t-95 -39h-215q-57 0 -96.5 39t-39.5 94v1796q0 55 39 94.5t97 39.5h215q55 0 95 -39t40 -95q0 -57 -40 -96t-95 -39h-68v-1525h68q55 0 95 -40t40 -95.5z"/>
<glyph unicode="\" horiz-adv-x="800" d="M801 27q16 -47 -4.5 -94.5t-67.5 -65.5q-47 -16 -94 4t-64 68l-565 1491q-18 47 2.5 94t67.5 63q47 18 93 -2t64 -67z"/>
<glyph unicode="]" horiz-adv-x="688" d="M586 -242q0 -55 -40 -94t-95 -39h-215q-57 0 -96.5 39t-39.5 94.5t39 95.5t97 40h67v1525h-67q-57 0 -96.5 39t-39.5 96q0 55 39 94.5t97 39.5h215q55 0 95 -39t40 -95v-1796z"/>
<glyph unicode="^" horiz-adv-x="1069" d="M954 975q29 -43 19 -93.5t-51 -76.5q-43 -29 -93.5 -19.5t-76.5 54.5l-217 334l-218 -334q-27 -45 -78 -54.5t-92 19.5q-41 27 -51 77t19 93l293 450q51 74 126.5 74t127.5 -74z"/>
<glyph unicode="_" horiz-adv-x="985" d="M1104 -287q0 -49 -35 -82.5t-84 -33.5h-985q-49 0 -84 33.5t-35 82.5t35 84t84 35h985q49 0 84 -35t35 -84z"/>
<glyph unicode="`" horiz-adv-x="1085" d="M434 1636q27 14 55 15q68 0 99 -64l112 -231q12 -25 13 -47q0 -55 -60 -84q-25 -10 -41 -11q-53 0 -88 58l-135 219q-16 27 -16 53q0 57 61 92z"/>
<glyph unicode="a" horiz-adv-x="1091" d="M1028 100q0 -113 -139 -112q-72 0 -127 43q-20 14 -41 43q-98 -86 -281 -86q-180 0 -274 86t-94 233v15q0 145 105.5 228t299.5 83h182v39q0 96 -33.5 141t-121.5 45q-102 0 -185 -45q-33 -18 -61 -18q-17 0 -32 7q-40 17 -63 50q-17 24 -18 55q0 11 2 22q8 44 54 72 q117 76 325 76q221 0 315.5 -102.5t94.5 -335.5v-342q0 -47 12.5 -68.5t40.5 -46.5q39 -35 39 -82zM659 344v90h-149q-164 0 -164 -117v-14q0 -119 154 -119q74 0 116.5 40t42.5 120z"/>
<glyph unicode="b" horiz-adv-x="1128" d="M1022 430q0 -442 -393 -442q-150 0 -260 80q-18 -20 -37 -35q-57 -45 -129 -45q-137 0 -137 112q0 53 36 82q20 16 29.5 26.5t17 33t7.5 55.5v1049q0 57 41 97t98 40t97 -40t40 -97v-349q98 80 230 80q201 0 280.5 -116.5t79.5 -356.5v-174zM748 408v241q0 98 -37 146.5 t-121 48.5q-90 0 -158 -72v-498q70 -53 150 -53q166 1 166 187z"/>
<glyph unicode="c" horiz-adv-x="919" d="M856 877q-16 -45 -58 -62q-20 -8 -39 -8q-21 0 -42 10q-72 33 -156 33t-131 -58.5t-47 -164.5v-191q0 -104 43 -163.5t125 -59.5q88 0 166 35q20 9 41 9q20 0 41 -8q43 -17 57 -63q7 -23 7 -43q0 -61 -64 -98q-109 -57 -264 -57q-219 0 -325 126t-106 339v143 q0 209 113 345t318 136q166 0 268 -59q63 -37 63 -94q0 -21 -10 -47z"/>
<glyph unicode="d" horiz-adv-x="1128" d="M1063 100q0 -113 -139 -112q-70 0 -129 45q-20 18 -35 37q-115 -82 -260 -82q-395 0 -396 438v166q0 238 87.5 361.5t287.5 123.5q121 0 217 -63v332q0 57 40 97t97.5 40t98.5 -40t41 -97v-1049q0 -47 12 -68.5t41 -46.5q37 -37 37 -82zM696 276v504q-66 63 -151 64 q-162 0 -162 -199v-239q0 -94 38 -140.5t126 -46.5q71 0 149 57z"/>
<glyph unicode="e" horiz-adv-x="1054" d="M965 545q0 -41 -28 -70t-67 -29h-489v-38q0 -195 170 -195q117 0 229 45q18 7 36 7q23 0 45 -11q40 -20 52 -66q7 -24 8 -44q0 -61 -65 -91q-143 -66 -321 -65q-223 0 -327 125t-104 323v191q0 193 110 321.5t323 128.5q219 0 323.5 -125t104.5 -319v-88zM698 653v27 q0 182 -155 182q-162 0 -162 -182v-27h317z"/>
<glyph unicode="f" horiz-adv-x="757" d="M780 1380q0 -49 -35.5 -84.5t-87.5 -35.5h-61q-80 0 -117 -39t-37 -127v-29h129q47 0 81 -34t34 -81t-34 -79.5t-81 -32.5h-129v-713q0 -57 -41 -97t-98 -40t-97 40t-40 97v713h-31q-45 0 -78.5 33.5t-33.5 78.5q0 47 32.5 81t79.5 34h31v29q0 195 100.5 302t292.5 107 h98q51 0 87 -36t36 -87z"/>
<glyph unicode="g" horiz-adv-x="1107" d="M973 92q0 -221 -115 -344t-340 -123q-178 0 -289 47q-80 37 -79 109q0 47 33 80q32 31 76 31q3 0 5 -1q16 -2 84 -21.5t150 -19.5q199 0 198 226v53q-104 -66 -221 -66q-203 0 -287 116t-84 351v78q0 231 88.5 350t284.5 119q137 0 234 -90l2 17q4 33 41 53t80 20 q63 0 101 -40t38 -99v-846zM696 354v420q-70 70 -157 70q-158 0 -158 -195v-166q0 -96 36 -141t122 -45q83 0 157 57z"/>
<glyph unicode="h" horiz-adv-x="1138" d="M1004 125q0 -57 -40 -97t-97.5 -40t-98.5 40t-41 97v532q0 160 -145 160q-106 0 -170 -84v-608q0 -57 -41 -97t-99 -40q-55 0 -96 40t-41 97v1221q0 57 41 97t96 40q57 0 98.5 -40t41.5 -97v-336q100 68 245 67q346 0 347 -387v-565z"/>
<glyph unicode="i" horiz-adv-x="548" d="M430 1368.5q0 -65.5 -46 -111t-112 -45.5q-63 0 -109 45.5t-46 111t45 111.5t110.5 46t111.5 -46t46 -111.5zM412 125q0 -57 -41 -97t-99 -40q-55 0 -96 40t-41 97v813q0 57 41 98t96 41q57 0 98.5 -41t41.5 -98v-813z"/>
<glyph unicode="j" horiz-adv-x="548" d="M412 72q0 -446 -430 -447q-53 0 -84 33t-31 82q0 47 30.5 76.5t84.5 36.5q80 8 116.5 53t36.5 147v883q0 57 40 98t97 41q61 0 100.5 -42t39.5 -97v-864zM117 1366q0 66 45 112t110.5 46t111.5 -46t46 -112q0 -63 -46 -108.5t-111.5 -45.5t-110.5 45.5t-45 108.5z"/>
<glyph unicode="k" horiz-adv-x="1040" d="M993 170q12 -30 13 -57q0 -39 -27 -71q-45 -54 -113 -54q-86 0 -118 84q-98 225 -211 397l-125 -119v-225q0 -57 -41 -97t-99 -40q-55 0 -96 40t-41 97v1221q0 57 41 97t96 40q57 0 98.5 -40t41.5 -97v-672l372 368q36 34 86 34h2q51 -1 86 -38t35 -88t-37 -84l-227 -217 q158 -233 264 -479z"/>
<glyph unicode="l" horiz-adv-x="567" d="M504 100q0 -113 -139 -112q-72 0 -129 45q-109 80 -109 241v1072q0 57 41 97t98.5 40t98.5 -40t41 -97v-1049q0 -33 9 -56.5t18 -31.5t32 -27q39 -35 39 -82z"/>
<glyph unicode="m" horiz-adv-x="1744" d="M1610 125q0 -57 -41 -97t-99 -40q-55 0 -96 40t-41 97v532q0 160 -141 160q-106 0 -170 -84q4 -25 4 -41v-567q0 -57 -41 -97t-98.5 -40t-97 40t-39.5 97v532q0 160 -144 160q-106 0 -166 -80v-612q0 -57 -40 -97t-97 -40t-98 40t-41 97v629q0 33 -10.5 56.5t-18.5 31.5 t-31 28q-39 29 -38 80q0 115 137 115q68 0 131 -45q29 -27 45 -49q121 106 303 106q190 0 272 -114q119 115 312 114q184 0 264 -100t80 -285v-567z"/>
<glyph unicode="n" horiz-adv-x="1167" d="M1032 125q0 -57 -41 -97t-98 -40t-97 40t-40 97v532q0 74 -31 117t-113 43q-111 0 -172 -84v-608q0 -57 -40 -97t-97 -40t-98 40t-41 97v629q0 33 -10.5 56.5t-18.5 31.5t-31 28q-39 29 -38 80q0 115 137 115q68 0 131 -45q27 -25 45 -53q117 111 309 110q344 0 344 -387 v-565z"/>
<glyph unicode="o" horiz-adv-x="1089" d="M985 422q0 -190 -111.5 -312t-328.5 -122t-329 121.5t-112 312.5v219q0 190 112 313t329 123t328.5 -123t111.5 -313v-219zM709 424v215q0 188 -164 188q-162 0 -162 -188v-215q0 -188 162 -188q164 0 164 188z"/>
<glyph unicode="p" horiz-adv-x="1128" d="M1022 473q0 -240 -87 -362.5t-290 -122.5q-123 0 -211 61v-287q0 -57 -41 -97t-98 -40t-97 40t-40 97v1004q0 33 -8.5 56.5t-17.5 33.5t-28 27q-39 29 -38 80q0 115 137 114q72 0 129 -45q23 -20 37 -39q111 84 260 84q393 0 393 -438v-166zM748 420v239q0 94 -40 139.5 t-128 45.5q-74 0 -146 -56v-503q61 -66 150 -66q164 0 164 201z"/>
<glyph unicode="q" horiz-adv-x="1128" d="M1063 963q0 -51 -37 -80q-20 -18 -29.5 -28.5t-16.5 -33t-7 -55.5v-1004q0 -57 -41 -97t-98.5 -40t-98.5 40t-41 97l2 304q-98 -78 -229 -78q-201 0 -282 116.5t-81 354.5v174q0 215 99.5 329.5t296.5 114.5q147 0 260 -82q14 20 37 37q57 45 129 45q137 1 137 -114z M696 291v497q-68 55 -149 56q-166 0 -166 -187v-243q0 -98 37 -146.5t121 -48.5q89 0 157 72z"/>
<glyph unicode="r" horiz-adv-x="870" d="M864 938q0 -55 -34.5 -95t-96.5 -40q-14 0 -48 5t-69 5q-139 0 -176 -119v-569q0 -57 -40 -97t-97 -40t-98 40t-41 97v629q0 33 -10.5 56.5t-18.5 31.5t-31 28q-39 29 -38 80q0 115 139 115q57 0 109.5 -33t82.5 -86q104 129 283 129q76 0 130 -35.5t54 -101.5z"/>
<glyph unicode="s" horiz-adv-x="948" d="M868 326q0 -170 -122.5 -254t-305.5 -84q-172 0 -297 43q-43 14 -61 58q-11 26 -11 53q0 18 5 36q16 49 60 70q24 11 50 11q20 0 41 -7q102 -39 215 -39q78 0 121 26.5t43 73.5q0 31 -15.5 51.5t-46 33t-61 19.5t-81 16t-80.5 18q-113 27 -178.5 92t-65.5 202 q0 158 110.5 245t272.5 87q156 0 287 -45q47 -16 67 -57q12 -24 12 -50q0 -18 -6 -38q-14 -45 -56 -68q-26 -14 -53 -14q-17 0 -34 6q-119 41 -201 41q-68 0 -103.5 -24.5t-35.5 -63.5q0 -20 6 -35.5t20.5 -27t30 -18.5t41 -14l44.5 -12l54 -11q34 -7 56 -11 q59 -12 102 -29.5t86 -51.5t66.5 -91t23.5 -137z"/>
<glyph unicode="t" horiz-adv-x="780" d="M764 123q0 -51 -36 -87t-85 -36h-78q-401 0 -401 475v363h-33q-45 0 -79 33.5t-34 78.5q0 47 33 81t80 34h33v139q0 57 41 98t98 41t97 -40.5t40 -98.5v-139h158q47 0 81 -34t34 -81t-34 -79.5t-81 -32.5h-158l2 -357q0 -131 34 -184t128 -53h39q49 0 85 -35t36 -86z"/>
<glyph unicode="u" horiz-adv-x="1171" d="M1106 100q0 -113 -139 -112q-72 0 -129 45q-25 18 -52 59q-115 -104 -303 -104q-176 0 -260 101t-84 282v567q0 57 40 98t97.5 41t98.5 -41t41 -98v-532q0 -78 29.5 -119t113.5 -41q109 0 170 88v604q0 57 41 98t98.5 41t97.5 -41t40 -98v-641q0 -33 10 -56.5t18 -30.5 l33 -28q39 -35 39 -82z"/>
<glyph unicode="v" horiz-adv-x="1015" d="M975 907q-129 -393 -293 -782q-35 -80 -79 -108.5t-103 -28.5q-63 0 -106.5 28.5t-76.5 108.5q-170 432 -276 788q-8 24 -8 46q0 40 27 71q42 47 106 47q88 0 117 -90q100 -332 219 -655q90 242 225 653q31 92 121 92q66 0 108 -49q27 -31 28 -72q0 -23 -9 -49z"/>
<glyph unicode="w" horiz-adv-x="1495" d="M1452 930q-109 -483 -213 -815q-43 -127 -176 -127q-135 0 -170 123q-90 303 -145 534q-74 -295 -146 -534q-35 -123 -172 -123q-133 0 -174 127q-117 371 -213 815q-3 15 -3 29q0 46 31 77q40 41 97 41q43 0 78 -25.5t45 -74.5q94 -418 155 -639q88 319 150 610 q29 129 154 129q121 0 149 -129q80 -354 152 -610q82 299 153 639q10 49 45 74.5t78 25.5q57 0 97 -41q31 -31 31 -77q0 -14 -3 -29z"/>
<glyph unicode="x" horiz-adv-x="952" d="M893 186q16 -34 16 -65q0 -39 -26 -73q-47 -60 -123 -60q-84 0 -125 80q-55 113 -166 264q-119 -162 -172 -271q-37 -74 -115 -73q-70 0 -113 55q-25 31 -25 67q0 28 15 60q74 143 248 369q-162 211 -225 342q-15 33 -15 62q0 40 27 75q47 59 123 59q90 0 127 -84 q57 -125 135 -229q100 143 144 235q35 78 116 78q70 0 113 -55q24 -31 24 -67q0 -27 -14 -58q-61 -133 -221 -344q184 -234 252 -367z"/>
<glyph unicode="y" horiz-adv-x="968" d="M926 893l-260 -741q-94 -262 -213 -387t-310 -140q-9 -1 -17 -1q-58 0 -94 37q-42 42 -42 99q0 51 30.5 88t92.5 43q74 6 132 37t109 115q-209 516 -317 866q-8 24 -8 46q0 42 29 74q44 48 110 48q92 0 117 -94q117 -373 198 -598l191 600q27 92 125 92q70 0 112 -54 q26 -33 26 -73q0 -27 -11 -57z"/>
<glyph unicode="z" horiz-adv-x="909" d="M870 946.5q0 -59.5 -41 -115.5l-428 -591h349q49 0 84.5 -35t35.5 -86q0 -47 -35.5 -83t-84.5 -36h-586q-43 0 -83 38t-40 97q0 45 27 80l440 610h-318q-49 0 -83.5 35t-34.5 84q0 51 34.5 86t83.5 35h551q49 0 89 -29.5t40 -89z"/>
<glyph unicode="{" horiz-adv-x="784" d="M672 -237.5q0 -57.5 -36 -96.5t-91 -39h-19q-143 0 -243.5 90t-100.5 275q0 78 37 230.5t37 197.5q0 68 -24.5 98.5t-61.5 30.5h-8q-43 0 -72 30.5t-29 77.5q0 45 29 77t72 32h8q86 0 86 127q0 45 -37 198.5t-37 231.5q0 182 100.5 273.5t243.5 91.5h19q55 0 91 -40 t36 -98q0 -55 -33 -94t-84 -39h-6q-35 0 -61.5 -28.5t-26.5 -83.5q0 -63 38 -198.5t38 -205.5q0 -184 -148 -237v-15q147 -53 148 -237q0 -70 -38 -205t-38 -199q0 -53 26.5 -82.5t61.5 -29.5h6q51 0 84 -38t33 -95.5z"/>
<glyph unicode="|" horiz-adv-x="573" d="M428 -236q0 -59 -42 -100t-99.5 -41t-99.5 41t-42 100v1784q0 57 42 99.5t99.5 42.5t99.5 -42t42 -100v-1784z"/>
<glyph unicode="}" horiz-adv-x="784" d="M723 657q0 -47 -27.5 -77.5t-70.5 -30.5h-9q-37 0 -62.5 -31t-25.5 -98q0 -45 37 -197.5t37 -230.5q0 -184 -100.5 -274.5t-241.5 -90.5h-18q-55 0 -92 39t-37 96.5t33.5 95.5t84.5 38h7q35 0 60.5 28.5t25.5 83.5q0 63 -37 198.5t-37 205.5q0 184 147 237v15 q-147 53 -147 237q0 70 37 205t37 199q0 55 -26 83.5t-60 28.5h-7q-51 0 -84.5 39t-33.5 94q0 57 36.5 97.5t92.5 40.5h18q141 0 241.5 -91.5t100.5 -273.5q0 -78 -37 -231.5t-37 -198.5q0 -66 26 -96.5t62 -30.5h9q43 0 70.5 -32t27.5 -77z"/>
<glyph unicode="~" horiz-adv-x="1284" d="M1167 625q0 -104 -100 -161.5t-227 -57.5q-92 0 -205 51t-170 51q-53 0 -109.5 -38t-99.5 -38q-57 0 -98 42t-41 99q0 104 101 164t226 60q92 0 204 -53.5t169 -53.5q55 0 110.5 37t98.5 37q57 0 99 -41t42 -98z"/>
<glyph unicode="¡" horiz-adv-x="622" d="M170 -299l31 750q4 70 29.5 102.5t81 32.5t80 -33t28.5 -102l33 -750q4 -66 -35 -111t-107 -45q-70 0 -107.5 45t-33.5 111zM131 897q0 76 53.5 128t126.5 52q76 0 128.5 -52t52.5 -128q0 -74 -52.5 -127t-128.5 -53q-74 0 -127 53t-53 127z"/>
<glyph unicode="¢" horiz-adv-x="919" d="M856 874q-16 -43 -58 -59t-81 2q-72 33 -156 33t-131 -59.5t-47 -165.5v-189q0 -104 43 -163.5t125 -59.5q88 0 166 35q39 18 82 0.5t57 -62.5q29 -92 -57 -141q-72 -37 -137 -45v-86q0 -43 -33 -75t-76 -32q-45 0 -77 32t-32 75v80q-172 27 -256 148.5t-84 310.5v143 q0 184 88.5 312t251.5 159v80q0 45 32 76.5t77 31.5q43 0 76 -31.5t33 -76.5v-82q84 -14 141 -49q88 -48 53 -142z"/>
<glyph unicode="£" d="M1110 133q0 -55 -39 -94t-94 -39h-807q-55 0 -94 39t-39 94q0 100 156 150q102 35 102 231q0 31 -14 59h-86q-47 0 -81 33t-34 80t33.5 81t81.5 34h32q-49 160 -49 250q0 193 129 323.5t379 130.5q152 0 275 -41q109 -35 108 -127q0 -57 -35 -95t-90 -38q-23 0 -78 15 q-94 23 -155 22q-135 0 -192.5 -58.5t-57.5 -140.5q0 -90 53 -241h260q47 0 81 -34t34 -81t-34 -80t-81 -33h-209q10 -27 10 -59q2 -147 -98 -248h500q55 0 94 -39t39 -94z"/>
<glyph unicode="¤" horiz-adv-x="1439" d="M137 389l133 133q-78 119 -77 273q0 152 79 276l-135 135q-35 35 -33 84t39 88q33 37 83 37t85 -35l133 -135q127 80 279 80q145 0 272 -78l131 131q35 35 85.5 34t88.5 -38q35 -35 35 -85t-35 -85l-129 -129q82 -131 82 -280q0 -147 -79 -277l126 -127q37 -35 36 -84 t-36 -84q-39 -39 -88 -40t-86 34l-127 127q-125 -80 -276 -80q-158 0 -281 82l-131 -131q-35 -35 -84 -34t-84 36q-39 37 -40 87t34 85zM383 794.5q0 -139.5 99.5 -238.5t240.5 -99q139 0 237.5 99t98.5 238.5t-98.5 237.5t-237.5 98q-141 0 -240.5 -98t-99.5 -237.5z"/>
<glyph unicode="¥" d="M1112 1378q0 -23 -14 -59q-94 -211 -189 -395h60q45 0 77.5 -34t32.5 -79t-32.5 -78t-77.5 -33h-174l-82 -151v-29h256q45 0 77.5 -33.5t32.5 -79t-32.5 -78t-77.5 -32.5h-256v-174q0 -59 -41 -100t-100.5 -41t-100.5 42t-41 99v174h-254q-45 0 -77.5 32.5t-32.5 78.5 q0 47 32.5 79.5t77.5 32.5h254v29q-63 115 -80 151h-174q-45 0 -77.5 33t-32.5 78q0 47 32.5 80t77.5 33h60q-76 147 -187 391q-12 25 -12 59q0 59 44 98t101 39q82 0 121 -84q104 -238 275 -563q162 311 272 566q39 82 119 81q55 0 99 -38t44 -95z"/>
<glyph unicode="¦" horiz-adv-x="573" d="M428 1024q0 -59 -41 -100t-100.5 -41t-100.5 41t-41 100v524q0 57 42 98.5t99.5 41.5t99.5 -41t42 -99v-524zM428 -55q0 -59 -42 -100.5t-99.5 -41.5t-99.5 41t-42 101v522q0 59 41 100t100.5 41t100.5 -41t41 -100v-522z"/>
<glyph unicode="§" horiz-adv-x="1112" d="M1032 551q0 -172 -123 -281q78 -82 78 -215q0 -199 -130 -307t-320 -108q-166 0 -293 43q-92 35 -92 118q0 47 31.5 83t82.5 36q20 0 60 -13l51 -18q70 -20 143 -20q98 0 155.5 39t57.5 115q0 61 -38 91.5t-132 59.5q-23 6 -82 24l-93 27q-34 10 -77 27.5t-69 34.5 q-154 96 -154 284q0 172 121 279q-74 84 -74 217q0 199 129 307.5t320 108.5q170 0 290 -45q94 -33 95 -117q0 -49 -32 -84t-83 -35q-16 0 -31.5 4t-39 13.5t-38.5 13.5q-74 20 -143 20q-100 0 -157.5 -39.5t-57.5 -115.5q0 -61 38 -92t132 -58q16 -6 81 -24l95 -28 q31 -9 76 -27.5t72 -34.5q151 -95 151 -283zM778 524q0 63 -46 95t-163 67q-113 35 -155 49q-72 -49 -72 -139q0 -61 46 -94t163 -66q16 -6 70.5 -22.5t85.5 -28.5q71 49 71 139z"/>
<glyph unicode="¨" horiz-adv-x="1085" d="M209 1382.5q0 59.5 40 99.5t97 40q59 0 99 -40t40 -100q0 -57 -39.5 -97t-99 -40t-98.5 39t-39 98.5zM598 1382.5q0 59.5 40 99.5t97 40q59 0 99 -40t40 -100q0 -57 -39.5 -97t-99 -40t-98.5 39t-39 98.5z"/>
<glyph unicode="©" horiz-adv-x="1789" d="M1661 745.5q0 -315.5 -224.5 -539.5t-541.5 -224t-540.5 224t-223.5 539q0 317 224.5 541.5t539.5 224.5q317 0 541.5 -225t224.5 -540.5zM1477 745.5q0 241.5 -170 413.5t-412 172t-412 -172t-170 -413.5t170 -412.5t412 -171t412 171t170 412.5zM1137 446 q0 -55 -56 -77q-86 -37 -188 -37q-160 0 -244 99t-84 267v99q0 154 87 259t241 105q106 0 186 -35q57 -27 58 -77q0 -35 -25 -63t-59 -28q-20 0 -39 9q-43 20 -110.5 20t-111.5 -50t-44 -140v-99q0 -193 153 -192q70 0 121 22q14 6 35 7q35 0 57.5 -27t22.5 -62z"/>
<glyph unicode="ª" horiz-adv-x="923" d="M858 672q0 -94 -115 -94q-61 0 -104 34q-18 12 -33 35q-82 -70 -231 -69q-147 0 -225 70.5t-78 193.5v12q0 119 86 186.5t248 67.5h149v31q0 78 -27.5 115.5t-99.5 37.5q-78 0 -152 -37q-47 -23 -82.5 -9t-52.5 50q-35 68 37 115q94 61 268 62q182 0 259 -84t77 -277 v-278q0 -59 43 -95q33 -24 33 -67zM555 870v74h-123q-133 0 -133 -96v-10q0 -98 125 -99q59 0 95 34t36 97z"/>
<glyph unicode="«" horiz-adv-x="1409" d="M1280 281q35 -39 35 -86q0 -53 -39 -91q-37 -37 -88 -36.5t-90 38.5l-363 375q-37 41 -37 88t37 88l363 373q37 39 92 39q51 0 86 -35q39 -37 39 -90q0 -49 -35 -88l-279 -287zM645 281q35 -39 35 -86q0 -53 -39 -91q-37 -37 -88 -36.5t-90 38.5l-363 375q-37 41 -37 88 t37 88l363 373q37 39 92 39q51 0 86 -35q39 -37 39 -90q0 -49 -35 -88l-278 -287z"/>
<glyph unicode="¬" horiz-adv-x="1234" d="M1112 504q0 -53 -38 -90t-89 -37q-53 0 -91 38t-38 89v149h-606q-53 0 -90 38t-37 89t37 89t90 38h735q51 0 89 -38t38 -89v-276z"/>
<glyph unicode="­" horiz-adv-x="1042" d="M920 602q0 -53 -38 -90t-89 -37h-543q-53 0 -90 37t-37 90q0 51 37 88t90 37h543q51 0 89 -37t38 -88z"/>
<glyph unicode="®" horiz-adv-x="1789" d="M1661 745.5q0 -315.5 -224.5 -539.5t-541.5 -224t-540.5 224t-223.5 539q0 317 224.5 541.5t539.5 224.5q317 0 541.5 -225t224.5 -540.5zM1477 745.5q0 241.5 -170 413.5t-412 172t-412 -172t-170 -413.5t170 -412.5t412 -171t412 171t170 412.5zM1184 866 q0 -141 -125 -190l104 -207q10 -16 11 -37q0 -39 -28 -65.5t-67 -26.5q-57 0 -84 59l-114 248h-78v-215q0 -37 -27.5 -64.5t-64.5 -27.5t-63.5 27.5t-26.5 64.5v629q0 37 26.5 64.5t63.5 27.5h217q133 0 194.5 -64.5t61.5 -158.5v-64zM1001 881v34q0 74 -83 74h-115v-184 h100q98 0 98 76z"/>
<glyph unicode="¯" horiz-adv-x="1085" d="M842 1382.5q0 -47.5 -34 -81t-81 -33.5h-369q-47 0 -80.5 33.5t-33.5 81t33.5 81t80.5 33.5h369q47 0 81 -33.5t34 -81z"/>
<glyph unicode="ˉ" horiz-adv-x="1085" d="M842 1382.5q0 -47.5 -34 -81t-81 -33.5h-369q-47 0 -80.5 33.5t-33.5 81t33.5 81t80.5 33.5h369q47 0 81 -33.5t34 -81z"/>
<glyph unicode="°" horiz-adv-x="876" d="M811 1139q0 -154 -108.5 -262.5t-264 -108.5t-264 108.5t-108.5 262.5q0 156 108.5 264t264 108t264 -108t108.5 -264zM612 1138.5q0 71.5 -51 122t-122.5 50.5t-123 -50.5t-51.5 -122t51.5 -121.5t123 -50t122.5 50t51 121.5z"/>
<glyph unicode="±" horiz-adv-x="1189" d="M1059 827q0 -51 -37 -88t-90 -37h-209v-210q0 -53 -38 -90t-91 -37q-51 0 -88 36.5t-37 90.5v210h-211q-53 0 -90 37t-37 88q0 53 38 91t89 38h211v209q0 53 37 90t88 37q53 0 91 -36.5t38 -90.5v-209h209q51 0 89 -38t38 -91zM1059 127q0 -53 -38 -90t-89 -37h-674 q-53 0 -90 37t-37 90t37 91t90 38h674q53 0 90 -38t37 -91z"/>
<glyph unicode="²" horiz-adv-x="921" d="M727 719q0 -33 -21.5 -55.5t-54.5 -22.5h-381q-33 0 -54 21.5t-21 56.5q0 160 151 287q25 20 75 57t74.5 58.5t47 55t22.5 68.5q0 45 -26.5 76t-79.5 31q-57 0 -103 -27l-26 -16q-16 -10 -28.5 -16.5t-27.5 -6.5q-31 0 -53 22.5t-22 55.5q0 37 28 59q94 76 236 76 q133 0 198.5 -76.5t65.5 -177.5q0 -88 -44 -147.5t-128 -120.5q-4 -2 -22.5 -15.5t-23.5 -17.5l-22 -16l-22 -16.5t-19.5 -16.5t-19.5 -18.5l-16.5 -17.5t-16.5 -20.5t-12 -20.5t-10 -21h280q33 0 54.5 -22.5t21.5 -55.5z"/>
<glyph unicode="³" horiz-adv-x="921" d="M719 874q0 -100 -74 -171.5t-211 -71.5q-139 0 -205 63q-27 27 -26 60q0 31 19.5 51t47.5 20q12 0 62 -28q39 -25 94 -25q61 0 95 33t34 90q0 111 -131 111q-82 0 -82 69q0 68 86 68q131 4 131 104q0 47 -26.5 77t-84 30t-100.5 -25q-49 -31 -65 -31q-27 0 -46.5 18.5 t-19.5 51.5q0 39 41 72q68 59 197 59t190.5 -70.5t61.5 -158.5q0 -135 -121 -191q133 -47 133 -205z"/>
<glyph unicode="´" horiz-adv-x="1085" d="M651 1636q61 -35 62 -92q0 -27 -17 -53l-135 -219q-35 -57 -88 -58q-16 0 -41 11q-59 29 -59 84q0 23 12 47l113 231q31 63 98 64q28 -1 55 -15z"/>
<glyph unicode="µ" horiz-adv-x="1171" d="M1106 100q0 -113 -139 -112q-72 0 -129 45q-25 18 -52 59q-115 -104 -303 -104q-41 0 -67 16v-242q0 -57 -41 -98t-98.5 -41t-97.5 41t-40 98v1176q0 57 40 98t97.5 41t98.5 -41t41 -98v-532q0 -78 29.5 -119t113.5 -41q109 0 170 88v604q0 57 41 98t98.5 41t97.5 -41 t40 -98v-641q0 -33 10 -56.5t18 -30.5l33 -28q39 -35 39 -82z"/>
<glyph unicode="μ" horiz-adv-x="1171" d="M1106 100q0 -113 -139 -112q-72 0 -129 45q-25 18 -52 59q-115 -104 -303 -104q-41 0 -67 16v-242q0 -57 -41 -98t-98.5 -41t-97.5 41t-40 98v1176q0 57 40 98t97.5 41t98.5 -41t41 -98v-532q0 -78 29.5 -119t113.5 -41q109 0 170 88v604q0 57 41 98t98.5 41t97.5 -41 t40 -98v-641q0 -33 10 -56.5t18 -30.5l33 -28q39 -35 39 -82z"/>
<glyph unicode="¶" horiz-adv-x="1490" d="M1409 1380q0 -51 -35 -85.5t-86 -34.5h-45v-1450q0 -59 -42 -100.5t-99.5 -41.5t-99 42t-41.5 100v1450h-168v-1450q0 -59 -42 -100.5t-99.5 -41.5t-99.5 41t-42 101v913q-154 10 -260.5 121.5t-106.5 267.5q0 162 116 275.5t280 113.5h749q51 0 86 -36t35 -85z"/>
<glyph unicode="·" horiz-adv-x="577" d="M451 604.5q0 -67.5 -48.5 -116t-117.5 -48.5q-68 0 -115 48.5t-47 116t47 114.5t115 47q70 0 118 -47t48 -114.5z"/>
<glyph unicode="∙" horiz-adv-x="577" d="M451 604.5q0 -67.5 -48.5 -116t-117.5 -48.5q-68 0 -115 48.5t-47 116t47 114.5t115 47q70 0 118 -47t48 -114.5z"/>
<glyph unicode="¸" horiz-adv-x="1085" d="M741 -244q0 -78 -65.5 -124t-179.5 -46q-152 0 -152 66q0 51 94 51q119 0 119 64q0 49 -88 57q-43 4 -61.5 18.5t-14.5 48.5l10 115h125v-86q106 0 159.5 -45t53.5 -119z"/>
<glyph unicode="¹" horiz-adv-x="921" d="M752 719q0 -33 -22.5 -55.5t-55.5 -22.5h-408q-33 0 -55.5 22.5t-22.5 55.5q0 31 22.5 53.5t55.5 22.5h162v485l-139 -94q-29 -18 -59.5 -12t-47.5 34q-18 27 -11 57.5t34 49.5l258 170q25 14 47 14q33 0 56.5 -23.5t23.5 -56.5v-624h84q33 0 55.5 -22.5t22.5 -53.5z"/>
<glyph unicode="º" horiz-adv-x="933" d="M829 936q0 -158 -91 -258t-271 -100q-178 0 -270.5 100t-92.5 258v178q0 156 92.5 257.5t270.5 101.5q180 0 271 -101.5t91 -257.5v-178zM600 936v176q0 154 -133 154q-131 0 -131 -154v-176q0 -154 131 -154q133 0 133 154z"/>
<glyph unicode="»" horiz-adv-x="1409" d="M1346 569q0 -47 -37 -88l-363 -375q-39 -39 -90 -38.5t-88 36.5q-39 37 -39 91q0 47 35 86l278 288l-278 287q-35 39 -35 88q0 53 39 90q35 35 86 35q55 0 92 -39l363 -373q37 -41 37 -88zM711 569q0 -47 -37 -88l-363 -375q-39 -39 -90 -38.5t-88 36.5q-39 37 -39 89 q0 49 35 88l277 288l-277 287q-35 39 -35 88q0 53 39 90q35 35 86 35q55 0 92 -39l363 -373q37 -41 37 -88z"/>
<glyph unicode="¼" horiz-adv-x="921" d="M723 774q0 -29 -20.5 -50.5t-49.5 -21.5h-379q-31 0 -51 21.5t-20 50.5q0 31 20.5 51.5t50.5 20.5h150v448l-129 -86q-25 -16 -54.5 -10t-45.5 31q-14 27 -8 54.5t30 43.5l238 158q25 14 45 14q31 0 52 -22.5t21 -53.5v-577h80q29 0 49.5 -20.5t20.5 -51.5zM850 526 q0 -31 -20.5 -51t-51.5 -20h-635q-31 0 -51 20.5t-20 50.5q0 29 20.5 50.5t50.5 21.5h635q31 0 51.5 -21.5t20.5 -50.5zM717 -231.5q0 -28.5 -20.5 -49t-49.5 -20.5h-26v-68q0 -29 -21.5 -50t-52.5 -21q-29 0 -50.5 21.5t-21.5 49.5v68h-231q-31 0 -51.5 19.5t-20.5 50.5 q0 14 10 34l217 519q12 29 41 40t57.5 -1.5t40 -41t-0.5 -57.5l-179 -424h117v88q0 29 21.5 50.5t50.5 21.5q31 0 52.5 -21.5t21.5 -50.5v-88h26q29 0 49.5 -20.5t20.5 -49z"/>
<glyph unicode="½" horiz-adv-x="921" d="M723 774q0 -29 -20.5 -50.5t-49.5 -21.5h-379q-31 0 -51 21.5t-20 50.5q0 31 20.5 51.5t50.5 20.5h150v448l-129 -86q-25 -16 -54.5 -10t-45.5 31q-14 27 -8 54.5t30 43.5l238 158q25 14 45 14q31 0 52 -22.5t21 -53.5v-577h80q29 0 49.5 -20.5t20.5 -51.5zM850 526 q0 -31 -20.5 -51t-51.5 -20h-635q-31 0 -51 20.5t-20 50.5q0 29 20.5 50.5t50.5 21.5h635q31 0 51.5 -21.5t20.5 -50.5zM717 -358q0 -31 -21.5 -51.5t-50.5 -20.5h-352q-33 0 -52.5 19.5t-19.5 52.5q0 150 141 266l70 54l70 53q25 19 45 50t20 64q0 41 -25.5 70.5 t-74.5 29.5q-47 0 -96 -24q-10 -6 -25.5 -16.5t-27 -15.5t-23.5 -5q-29 0 -49.5 20.5t-20.5 51.5q0 37 27 55q88 72 219 72q123 0 184.5 -72t61.5 -166q0 -57 -25.5 -106.5t-55.5 -77t-81 -64.5q-4 -4 -33.5 -25.5l-37.5 -27.5l-29 -25q-23 -18 -31 -29l-21 -29 q-12 -17 -18 -34h260q29 0 50.5 -20t21.5 -49z"/>
<glyph unicode="¾" horiz-adv-x="921" d="M711 920q0 -94 -70 -161t-197 -67q-125 0 -188 60q-25 25 -25 57q0 27 17.5 45t44.5 18q18 0 57 -24.5t88 -24.5q57 0 89 31t32 84q0 102 -123 102q-76 0 -76 66q0 63 80 63q123 4 123 97q0 43 -25.5 71.5t-78.5 28.5q-49 0 -92 -25q-41 -29 -62 -28q-25 0 -42 16.5 t-17 48.5q0 37 37 66q68 55 182 55q117 0 175 -65.5t58 -147.5q0 -129 -112 -176q125 -47 125 -190zM850 526q0 -31 -20.5 -51t-51.5 -20h-635q-31 0 -51 20.5t-20 50.5q0 29 20.5 50.5t50.5 21.5h635q31 0 51.5 -21.5t20.5 -50.5zM717 -231.5q0 -28.5 -19.5 -49 t-48.5 -20.5h-26v-68q0 -29 -21.5 -50t-52.5 -21t-51.5 21.5t-20.5 49.5v68h-233q-29 0 -49.5 19.5t-20.5 50.5q0 2 8 34l219 519q12 29 40 40t56.5 -1.5t41 -41t0.5 -57.5l-181 -424h119v88q0 29 20.5 50.5t51.5 21.5t52.5 -21.5t21.5 -50.5v-88h26q29 0 48.5 -20.5 t19.5 -49z"/>
<glyph unicode="¿" horiz-adv-x="946" d="M106 -76q0 115 54.5 193t152.5 155q94 74 121 115t27 96q0 49 34.5 83t90.5 34q59 0 94 -35t35 -96q0 -96 -31 -156.5t-125 -134.5l-29 -22l-27 -21.5t-23.5 -20t-22.5 -20.5t-18.5 -19.5t-17.5 -21.5l-13 -21q-8 -13 -11.5 -23.5t-5.5 -25t-2 -28.5q0 -88 50 -127 t128 -39q86 0 170 61q37 18 66 19q59 0 93 -36t34 -81q0 -76 -88 -131q-131 -74 -307 -74q-170 0 -299.5 95.5t-129.5 281.5zM406 897q0 76 53 128t127 52q76 0 127 -52t51 -128q0 -74 -52.5 -127t-126 -53t-126.5 53t-53 127z"/>
<glyph unicode="À" horiz-adv-x="1183" d="M1157 154q16 -76 -28 -124t-111 -48q-49 0 -86 27.5t-49 82.5q-27 119 -56 217h-479q-31 -119 -53 -217q-12 -53 -50 -81.5t-83 -28.5q-63 0 -107.5 48t-27.5 124q139 606 383 1212q59 147 180 147q127 0 186 -147q242 -594 381 -1212zM760 561q-74 252 -172 508 q-96 -258 -172 -508h344zM494 2048q27 14 55 14q68 0 98 -63l113 -232q12 -25 12 -47q0 -55 -59 -84q-25 -10 -41 -10q-53 0 -88 57l-135 220q-16 27 -17 53q1 59 62 92z"/>
<glyph unicode="Á" horiz-adv-x="1183" d="M1157 154q16 -76 -28 -124t-111 -48q-49 0 -86 27.5t-49 82.5q-27 119 -56 217h-479q-31 -119 -53 -217q-12 -53 -50 -81.5t-83 -28.5q-63 0 -107.5 48t-27.5 124q139 606 383 1212q59 147 180 147q127 0 186 -147q242 -594 381 -1212zM760 561q-74 252 -172 508 q-96 -258 -172 -508h344zM684 2048q61 -33 61 -92q0 -27 -16 -53l-135 -220q-35 -57 -88 -57q-16 0 -41 10q-59 29 -59 84q0 23 12 47l112 232q31 63 99 63q28 0 55 -14z"/>
<glyph unicode="Â" horiz-adv-x="1183" d="M1157 154q16 -76 -28 -124t-111 -48q-49 0 -86 27.5t-49 82.5q-27 119 -56 217h-479q-31 -119 -53 -217q-12 -53 -50 -81.5t-83 -28.5q-63 0 -107.5 48t-27.5 124q139 606 383 1212q59 147 180 147q127 0 186 -147q242 -594 381 -1212zM760 561q-74 252 -172 508 q-96 -258 -172 -508h344zM594 2044q39 -2 78 -31l219 -192q41 -33 41 -78q0 -35 -25 -66q-33 -39 -73 -39q-35 0 -68 25l-172 131l-172 -131q-33 -20 -66 -21q-45 0 -75 39q-25 35 -25 68q0 43 41 78l219 186q39 31 78 31z"/>
<glyph unicode="Ã" horiz-adv-x="1183" d="M1157 154q16 -76 -28 -124t-111 -48q-49 0 -86 27.5t-49 82.5q-27 119 -56 217h-479q-31 -119 -53 -217q-12 -53 -50 -81.5t-83 -28.5q-63 0 -107.5 48t-27.5 124q139 606 383 1212q59 147 180 147q127 0 186 -147q242 -594 381 -1212zM760 561q-74 252 -172 508 q-96 -258 -172 -508h344zM950 1868q2 -88 -66.5 -137.5t-154.5 -51.5q-63 -2 -142 40t-120 42q-39 0 -75 -32.5t-70 -32.5q-39 0 -68 33.5t-29 82.5q-2 86 66.5 137.5t154.5 53.5q63 2 142.5 -42t120.5 -44q39 0 73.5 32.5t71.5 32.5q39 2 67.5 -32.5t28.5 -81.5z"/>
<glyph unicode="Ä" horiz-adv-x="1183" d="M1157 154q16 -76 -28 -124t-111 -48q-49 0 -86 27.5t-49 82.5q-27 119 -56 217h-479q-31 -119 -53 -217q-12 -53 -50 -81.5t-83 -28.5q-63 0 -107.5 48t-27.5 124q139 606 383 1212q59 147 180 147q127 0 186 -147q242 -594 381 -1212zM760 561q-74 252 -172 508 q-96 -258 -172 -508h344zM258 1798q0 59 40 99t97 40q59 0 99.5 -41t40.5 -98t-40 -97t-99.5 -40t-98.5 40t-39 97zM647 1798q0 59 40 99t97 40q59 0 99.5 -41t40.5 -98t-40 -97t-99.5 -40t-98.5 40t-39 97z"/>
<glyph unicode="Å" horiz-adv-x="1183" d="M1157 154q16 -76 -28 -124t-111 -48q-49 0 -86 27.5t-49 82.5q-27 119 -56 217h-479q-31 -119 -53 -217q-12 -53 -50 -81.5t-83 -28.5q-63 0 -107.5 48t-27.5 124q139 606 383 1212q59 147 180 147q127 0 186 -147q242 -594 381 -1212zM760 561q-74 252 -172 508 q-96 -258 -172 -508h344zM838 1837q0 -100 -71 -172t-173 -72t-173 72t-71 172t71 172t173 72t173 -72t71 -172zM713 1837q0 49 -35 84t-84 35t-84 -35t-35 -84t35 -84t84 -35t84 35t35 84z"/>
<glyph unicode="Æ" horiz-adv-x="1826" d="M1757 135q0 -57 -39 -96t-94 -39h-618q-57 0 -96.5 39t-39.5 96v172h-460l-117 -239q-37 -82 -123 -82q-61 0 -104 38.5t-43 96.5q0 27 14 65q260 547 606 1162q78 145 215 145h739q55 0 95.5 -40t40.5 -95t-40 -94t-96 -39h-444v-348h397q53 0 91 -39t38 -92.5 t-37.5 -91.5t-91.5 -38h-397v-348h471q55 0 94 -39t39 -94zM870 557v623q-147 -258 -335 -623h335z"/>
<glyph unicode="Ç" horiz-adv-x="1118" d="M1057 1311q0 -49 -34 -87t-95 -40q-29 0 -90 33q-57 41 -156 40q-135 0 -201.5 -96t-66.5 -307v-219q0 -217 63.5 -307t194.5 -90q104 0 176 45q57 31 88 30q49 0 83 -33.5t34 -84.5q0 -66 -56 -107q-98 -92 -290 -104v-70q106 0 159.5 -45t53.5 -119q0 -78 -66 -124 t-180 -46q-152 0 -152 66q0 51 94 51q119 0 119 61q0 49 -86 60q-43 4 -61.5 18t-16.5 49l9 103q-449 51 -449 643v231q0 195 52.5 335t178 227t320.5 87q203 0 315 -96q60 -43 60 -104z"/>
<glyph unicode="È" horiz-adv-x="1161" d="M1092 135q0 -57 -39 -96t-95 -39h-665q-55 0 -94 39t-39 96v1223q0 55 39 95t94 40h637q57 0 96 -40t39 -95t-39 -94t-96 -39h-488v-348h443q53 0 92 -39t39 -92.5t-39 -91.5t-92 -38h-443v-348h516q55 0 94.5 -39t39.5 -94zM512 2048q27 14 55 14q68 0 99 -63l112 -232 q12 -25 13 -47q0 -55 -60 -84q-25 -10 -41 -10q-53 0 -88 57l-135 220q-16 27 -16 53q0 59 61 92z"/>
<glyph unicode="É" horiz-adv-x="1161" d="M1092 135q0 -57 -39 -96t-95 -39h-665q-55 0 -94 39t-39 96v1223q0 55 39 95t94 40h637q57 0 96 -40t39 -95t-39 -94t-96 -39h-488v-348h443q53 0 92 -39t39 -92.5t-39 -91.5t-92 -38h-443v-348h516q55 0 94.5 -39t39.5 -94zM741 2048q61 -33 62 -92q0 -27 -17 -53 l-135 -220q-35 -57 -88 -57q-16 0 -41 10q-59 29 -59 84q0 23 12 47l113 232q31 63 98 63q28 0 55 -14z"/>
<glyph unicode="Ê" horiz-adv-x="1161" d="M1092 135q0 -57 -39 -96t-95 -39h-665q-55 0 -94 39t-39 96v1223q0 55 39 95t94 40h637q57 0 96 -40t39 -95t-39 -94t-96 -39h-488v-348h443q53 0 92 -39t39 -92.5t-39 -91.5t-92 -38h-443v-348h516q55 0 94.5 -39t39.5 -94zM616 2044q39 -2 78 -31l219 -192 q41 -33 41 -78q0 -35 -24 -66q-33 -39 -74 -39q-33 0 -68 25l-172 131l-172 -131q-33 -20 -65 -21q-45 0 -76 39q-25 35 -24 68q0 43 40 78l220 186q38 31 77 31z"/>
<glyph unicode="Ë" horiz-adv-x="1161" d="M1092 135q0 -57 -39 -96t-95 -39h-665q-55 0 -94 39t-39 96v1223q0 55 39 95t94 40h637q57 0 96 -40t39 -95t-39 -94t-96 -39h-488v-348h443q53 0 92 -39t39 -92.5t-39 -91.5t-92 -38h-443v-348h516q55 0 94.5 -39t39.5 -94zM260 1798q0 59 40 99t97.5 40t98.5 -41 t41 -98t-40 -97t-100 -40q-57 0 -97 40t-40 97zM649 1798q0 59 40 99t97.5 40t98.5 -41t41 -98t-40 -97t-100 -40q-57 0 -97 40t-40 97z"/>
<glyph unicode="Ì" horiz-adv-x="600" d="M442 123q0 -57 -41 -99t-100 -42t-100 40.5t-41 100.5v1247q0 57 41 99t100 42q57 0 99 -42t42 -99v-1247zM197 2048q27 14 55 14q68 0 98 -63l113 -232q12 -25 12 -47q0 -55 -59 -84q-25 -10 -41 -10q-53 0 -88 57l-135 220q-16 27 -17 53q1 59 62 92z"/>
<glyph unicode="Í" horiz-adv-x="600" d="M442 123q0 -57 -41 -99t-100 -42t-100 40.5t-41 100.5v1247q0 57 41 99t100 42q57 0 99 -42t42 -99v-1247zM399 2048q61 -33 62 -92q0 -27 -17 -53l-135 -220q-35 -57 -88 -57q-16 0 -41 10q-59 29 -59 84q0 23 12 47l113 232q31 63 98 63q28 0 55 -14z"/>
<glyph unicode="Î" horiz-adv-x="600" d="M442 123q0 -57 -41 -99t-100 -42t-100 40.5t-41 100.5v1247q0 57 41 99t100 42q57 0 99 -42t42 -99v-1247zM303 2044q39 -2 78 -31l219 -192q41 -33 41 -78q0 -35 -25 -66q-33 -39 -73 -39q-35 0 -68 25l-172 131l-172 -131q-33 -20 -65 -21q-45 0 -76 39q-25 35 -25 68 q0 43 41 78l219 186q39 31 78 31z"/>
<glyph unicode="Ï" horiz-adv-x="600" d="M442 123q0 -57 -41 -99t-100 -42t-100 40.5t-41 100.5v1247q0 57 41 99t100 42q57 0 99 -42t42 -99v-1247zM-31 1798q0 59 40 99t97.5 40t98.5 -41t41 -98t-40 -97t-100 -40q-57 0 -97 40t-40 97zM358 1798q0 59 40 99t97.5 40t98.5 -41t41 -98t-40 -97t-99 -40 q-57 0 -97.5 40t-40.5 97z"/>
<glyph unicode="Ð" horiz-adv-x="1386" d="M1255 553q0 -78 -10 -145.5t-44 -146.5t-90 -133t-154.5 -91t-229.5 -37h-387q-57 0 -99 41t-42 100v461h-45q-55 0 -93 39t-38 92t37.5 91t93.5 38h45v490q0 57 42 99t99 42h387q131 0 229.5 -37t153.5 -92t90 -134t45 -146.5t10 -145.5v-385zM973 553v381 q0 143 -57.5 217t-206.5 74h-228v-363h113q53 0 92 -38t39 -91t-39 -92t-92 -39h-113v-338h228q150 0 207 74t57 215z"/>
<glyph unicode="Ñ" horiz-adv-x="1376" d="M1217 111q0 -55 -38 -92t-98 -37q-92 0 -137 67l-526 875v-813q0 -53 -38 -91t-91 -38t-91 37.5t-38 91.5v1271q0 55 36.5 92t100.5 37q94 0 137 -73l524 -871v815q0 53 38 91t91.5 38t91.5 -37.5t38 -91.5v-1271zM1040 1868q2 -88 -66.5 -137.5t-154.5 -51.5 q-63 -2 -142 40t-120 42q-39 0 -75 -32.5t-70 -32.5q-39 0 -68 33.5t-29 82.5q-2 86 67 137.5t155 53.5q63 2 142 -42t120 -44q39 0 73.5 32.5t71.5 32.5q39 2 67.5 -32.5t28.5 -81.5z"/>
<glyph unicode="Ò" horiz-adv-x="1327" d="M1198 535q0 -111 -28.5 -206.5t-88 -176t-167 -126.5t-251 -46t-251 46t-167 126.5t-87 176t-27.5 206.5v423q0 111 27.5 206.5t87 175t167 125.5t251 46t251 -46t167 -125.5t88 -175t28.5 -206.5v-423zM915 535v423q0 141 -56 218t-195.5 77t-194.5 -75.5t-55 -219.5 v-423q0 -143 55 -221t194.5 -78t195.5 78t56 221zM573 2048q27 14 56 14q68 0 98 -63l113 -232q12 -25 12 -47q0 -55 -59 -84q-25 -10 -41 -10q-53 0 -88 57l-136 220q-16 27 -16 53q0 59 61 92z"/>
<glyph unicode="Ó" horiz-adv-x="1327" d="M1198 535q0 -111 -28.5 -206.5t-88 -176t-167 -126.5t-251 -46t-251 46t-167 126.5t-87 176t-27.5 206.5v423q0 111 27.5 206.5t87 175t167 125.5t251 46t251 -46t167 -125.5t88 -175t28.5 -206.5v-423zM915 535v423q0 141 -56 218t-195.5 77t-194.5 -75.5t-55 -219.5 v-423q0 -143 55 -221t194.5 -78t195.5 78t56 221zM750 2048q61 -33 61 -92q0 -27 -16 -53l-136 -220q-35 -57 -88 -57q-16 0 -41 10q-59 29 -59 84q0 23 12 47l113 232q31 63 98 63q29 0 56 -14z"/>
<glyph unicode="Ô" horiz-adv-x="1327" d="M1198 535q0 -111 -28.5 -206.5t-88 -176t-167 -126.5t-251 -46t-251 46t-167 126.5t-87 176t-27.5 206.5v423q0 111 27.5 206.5t87 175t167 125.5t251 46t251 -46t167 -125.5t88 -175t28.5 -206.5v-423zM915 535v423q0 141 -56 218t-195.5 77t-194.5 -75.5t-55 -219.5 v-423q0 -143 55 -221t194.5 -78t195.5 78t56 221zM664 2044q39 -2 77 -31l220 -192q41 -33 40 -78q0 -35 -24 -66q-33 -39 -74 -39q-35 0 -67 25l-172 131l-172 -131q-33 -20 -66 -21q-45 0 -76 39q-25 35 -24 68q0 43 41 78l219 186q39 31 78 31z"/>
<glyph unicode="Õ" horiz-adv-x="1327" d="M1198 535q0 -111 -28.5 -206.5t-88 -176t-167 -126.5t-251 -46t-251 46t-167 126.5t-87 176t-27.5 206.5v423q0 111 27.5 206.5t87 175t167 125.5t251 46t251 -46t167 -125.5t88 -175t28.5 -206.5v-423zM915 535v423q0 141 -56 218t-195.5 77t-194.5 -75.5t-55 -219.5 v-423q0 -143 55 -221t194.5 -78t195.5 78t56 221zM1016 1868q2 -88 -66.5 -137.5t-154.5 -51.5q-63 -2 -142.5 40t-120.5 42q-39 0 -74.5 -32.5t-70.5 -32.5q-39 0 -67.5 33.5t-28.5 82.5q-2 86 66.5 137.5t154.5 53.5q63 2 142 -42t120 -44q39 0 74 32.5t72 32.5 q39 2 67.5 -32.5t28.5 -81.5z"/>
<glyph unicode="Ö" horiz-adv-x="1327" d="M1198 535q0 -111 -28.5 -206.5t-88 -176t-167 -126.5t-251 -46t-251 46t-167 126.5t-87 176t-27.5 206.5v423q0 111 27.5 206.5t87 175t167 125.5t251 46t251 -46t167 -125.5t88 -175t28.5 -206.5v-423zM915 535v423q0 141 -56 218t-195.5 77t-194.5 -75.5t-55 -219.5 v-423q0 -143 55 -221t194.5 -78t195.5 78t56 221zM322 1798q0 59 39.5 99t97 40t98.5 -41t41 -98t-40 -97t-99 -40q-57 0 -97 40t-40 97zM711 1798q0 59 40 99t97 40t98 -41t41 -98t-40 -97t-99 -40q-57 0 -97 40t-40 97z"/>
<glyph unicode="×" horiz-adv-x="1003" d="M838 250q-39 -39 -91.5 -39t-89.5 39l-155 156l-156 -156q-37 -39 -89 -39t-91 39q-37 37 -37 89t37 91l156 156l-156 153q-37 39 -37 91.5t37 89.5q39 39 91 38.5t89 -38.5l156 -154l155 154q37 39 89.5 38.5t91.5 -38.5q37 -37 36.5 -89.5t-36.5 -91.5l-156 -153 l156 -156q37 -39 37 -91t-37 -89z"/>
<glyph unicode="Ø" horiz-adv-x="1327" d="M1198 535q0 -111 -28.5 -206.5t-88 -176t-167 -126.5t-250.5 -46q-137 0 -236 43l-25 -54q-12 -29 -42.5 -40t-61.5 1q-29 14 -41 44t2 61l31 69q-160 145 -160 431v423q0 111 27.5 206.5t87 175t167 125.5t251.5 46q131 0 237 -43l23 52q14 29 43.5 41t60.5 -2 q29 -12 41 -43t-2 -62l-29 -68q160 -147 160 -428v-423zM795 1229q-47 25 -131 24q-139 0 -194.5 -75.5t-55.5 -219.5v-423q0 -68 20 -109zM915 535v423q0 66 -20 107l-360 -803q51 -27 129 -26q139 0 195 78t56 221z"/>
<glyph unicode="Ù" horiz-adv-x="1327" d="M1198 485q0 -221 -136 -362t-398.5 -141t-397.5 141t-135 362v885q0 59 41 100t98.5 41t99.5 -40.5t42 -100.5v-872q0 -270 251.5 -270.5t251.5 270.5v872q0 57 42 99t99.5 42t99.5 -42t42 -99v-885zM551 2048q27 14 55 14q68 0 99 -63l112 -232q12 -25 12 -47 q0 -55 -59 -84q-25 -10 -41 -10q-53 0 -88 57l-135 220q-16 27 -17 53q1 59 62 92z"/>
<glyph unicode="Ú" horiz-adv-x="1327" d="M1198 485q0 -221 -136 -362t-398.5 -141t-397.5 141t-135 362v885q0 59 41 100t98.5 41t99.5 -40.5t42 -100.5v-872q0 -270 251.5 -270.5t251.5 270.5v872q0 57 42 99t99.5 42t99.5 -42t42 -99v-885zM791 2048q61 -33 61 -92q0 -27 -16 -53l-136 -220q-35 -57 -88 -57 q-16 0 -41 10q-59 29 -59 84q0 23 12 47l113 232q31 63 98 63q29 0 56 -14z"/>
<glyph unicode="Û" horiz-adv-x="1327" d="M1198 485q0 -221 -136 -362t-398.5 -141t-397.5 141t-135 362v885q0 59 41 100t98.5 41t99.5 -40.5t42 -100.5v-872q0 -270 251.5 -270.5t251.5 270.5v872q0 57 42 99t99.5 42t99.5 -42t42 -99v-885zM659 2044q39 -2 78 -31l219 -192q41 -33 41 -78q0 -35 -24 -66 q-33 -39 -74 -39q-35 0 -68 25l-172 131l-172 -131q-33 -20 -65 -21q-45 0 -76 39q-25 35 -24 68q0 43 40 78l220 186q38 31 77 31z"/>
<glyph unicode="Ü" horiz-adv-x="1327" d="M1198 485q0 -221 -136 -362t-398.5 -141t-397.5 141t-135 362v885q0 59 41 100t98.5 41t99.5 -40.5t42 -100.5v-872q0 -270 251.5 -270.5t251.5 270.5v872q0 57 42 99t99.5 42t99.5 -42t42 -99v-885zM326 1798q0 59 40 99t97 40t98 -41t41 -98t-40 -97t-99 -40 q-57 0 -97 40t-40 97zM715 1798q0 59 40 99t97 40t98 -41t41 -98t-40 -97t-99 -40q-57 0 -97 40t-40 97z"/>
<glyph unicode="Ý" horiz-adv-x="1075" d="M1075 1378q0 -23 -14 -59q-150 -338 -383 -770v-426q0 -57 -42 -99t-99 -42q-59 0 -100.5 40.5t-41.5 100.5v426q-231 426 -381 766q-14 29 -14 59q0 59 45 98t102 39q82 0 121 -84q98 -231 273 -563q174 336 274 566q39 82 119 81q55 0 98 -38t43 -95zM647 2048 q61 -33 62 -92q0 -27 -17 -53l-135 -220q-35 -57 -88 -57q-16 0 -41 10q-59 29 -59 84q0 23 12 47l113 232q31 63 98 63q28 0 55 -14z"/>
<glyph unicode="Þ" horiz-adv-x="1232" d="M1155 625q0 -186 -120 -300t-335 -114h-258v-430q0 -59 -41 -100t-100 -41t-100 40.5t-41 100.5v1640q0 57 41 99.5t100 42.5q57 0 99 -42t42 -100v-270h246q244 0 355.5 -123t111.5 -299v-104zM874 629v94q0 162 -210 162h-222v-416h248q96 0 140 45t44 115z"/>
<glyph unicode="ß" horiz-adv-x="1230" d="M1126 342q0 -176 -127 -264t-313 -88q-100 0 -156 22q-43 14 -62 58.5t-5 89.5q27 70 98 67q82 -12 129 -12q174 0 174 125q0 16 -3 30.5t-11 27t-15.5 21.5t-23.5 19l-27 17q-10 6 -32.5 16t-35.5 15l-42 17l-45 17q-166 61 -166 207q0 63 28.5 108.5t70.5 68.5l84 47 q42 24 70.5 63t28.5 96q0 76 -44 110.5t-107 34.5q-182 0 -182 -282v-961q0 -57 -40 -98t-100 -41q-55 0 -96 41t-41 98v961q0 256 127 388t342 132q180 0 291 -96.5t111 -270.5q0 -98 -43 -161.5t-95.5 -86t-95.5 -50t-43 -60.5q0 -57 111 -90q141 -43 213.5 -113.5 t72.5 -222.5z"/>
<glyph unicode="à" horiz-adv-x="1095" d="M1028 100q0 -113 -139 -112q-72 0 -127 43q-20 14 -41 43q-98 -86 -281 -86q-180 0 -274 86t-94 233v15q0 145 105.5 228t299.5 83h182v39q0 96 -33.5 141t-121.5 45q-102 0 -185 -45q-53 -29 -93 -11.5t-63.5 50.5t-15 77t53.5 72q117 76 325 76q221 0 315.5 -102.5 t94.5 -335.5v-342q0 -47 12.5 -68.5t40.5 -46.5q39 -35 39 -82zM659 344v90h-149q-164 0 -164 -117v-14q0 -119 154 -119q74 0 116.5 40t42.5 120zM414 1636q27 14 55 15q68 0 98 -64l113 -231q12 -25 12 -47q0 -55 -59 -84q-25 -10 -41 -11q-53 0 -88 58l-135 219 q-16 27 -17 53q1 57 62 92z"/>
<glyph unicode="á" horiz-adv-x="1095" d="M1028 100q0 -113 -139 -112q-72 0 -127 43q-20 14 -41 43q-98 -86 -281 -86q-180 0 -274 86t-94 233v15q0 145 105.5 228t299.5 83h182v39q0 96 -33.5 141t-121.5 45q-102 0 -185 -45q-53 -29 -93 -11.5t-63.5 50.5t-15 77t53.5 72q117 76 325 76q221 0 315.5 -102.5 t94.5 -335.5v-342q0 -47 12.5 -68.5t40.5 -46.5q39 -35 39 -82zM659 344v90h-149q-164 0 -164 -117v-14q0 -119 154 -119q74 0 116.5 40t42.5 120zM649 1636q61 -35 62 -92q0 -27 -17 -53l-135 -219q-35 -57 -88 -58q-16 0 -41 11q-59 29 -59 84q0 23 12 47l113 231 q31 63 98 64q28 -1 55 -15z"/>
<glyph unicode="â" horiz-adv-x="1095" d="M1028 100q0 -113 -139 -112q-72 0 -127 43q-20 14 -41 43q-98 -86 -281 -86q-180 0 -274 86t-94 233v15q0 145 105.5 228t299.5 83h182v39q0 96 -33.5 141t-121.5 45q-102 0 -185 -45q-53 -29 -93 -11.5t-63.5 50.5t-15 77t53.5 72q117 76 325 76q221 0 315.5 -102.5 t94.5 -335.5v-342q0 -47 12.5 -68.5t40.5 -46.5q39 -35 39 -82zM659 344v90h-149q-164 0 -164 -117v-14q0 -119 154 -119q74 0 116.5 40t42.5 120zM526 1632q39 -2 78 -30l219 -193q41 -33 41 -78q0 -35 -24 -65q-33 -39 -74 -39q-33 0 -68 24l-172 131l-172 -131 q-33 -20 -65 -20q-45 0 -76 39q-25 35 -25 67q0 43 41 78l220 187q38 30 77 30z"/>
<glyph unicode="ã" horiz-adv-x="1095" d="M1028 100q0 -113 -139 -112q-72 0 -127 43q-20 14 -41 43q-98 -86 -281 -86q-180 0 -274 86t-94 233v15q0 145 105.5 228t299.5 83h182v39q0 96 -33.5 141t-121.5 45q-102 0 -185 -45q-53 -29 -93 -11.5t-63.5 50.5t-15 77t53.5 72q117 76 325 76q221 0 315.5 -102.5 t94.5 -335.5v-342q0 -47 12.5 -68.5t40.5 -46.5q39 -35 39 -82zM659 344v90h-149q-164 0 -164 -117v-14q0 -119 154 -119q74 0 116.5 40t42.5 120zM883 1456q2 -88 -66.5 -137t-154.5 -51q-63 -2 -142.5 40t-120.5 42q-39 0 -74.5 -33t-70.5 -33q-39 0 -67.5 34t-28.5 83 q-2 86 66.5 137t154.5 53q63 2 142 -42t120 -44q39 0 74 33t71 33q39 2 68 -33t29 -82z"/>
<glyph unicode="ä" horiz-adv-x="1095" d="M1028 100q0 -113 -139 -112q-72 0 -127 43q-20 14 -41 43q-98 -86 -281 -86q-180 0 -274 86t-94 233v15q0 145 105.5 228t299.5 83h182v39q0 96 -33.5 141t-121.5 45q-102 0 -185 -45q-53 -29 -93 -11.5t-63.5 50.5t-15 77t53.5 72q117 76 325 76q221 0 315.5 -102.5 t94.5 -335.5v-342q0 -47 12.5 -68.5t40.5 -46.5q39 -35 39 -82zM659 344v90h-149q-164 0 -164 -117v-14q0 -119 154 -119q74 0 116.5 40t42.5 120zM205 1382.5q0 59.5 40 99.5t97 40q59 0 99 -40t40 -100q0 -57 -40 -97t-99 -40t-98 39t-39 98.5zM594 1382.5q0 59.5 40 99.5 t97 40q59 0 99 -40t40 -100q0 -57 -39.5 -97t-99 -40t-98.5 39t-39 98.5z"/>
<glyph unicode="å" horiz-adv-x="1095" d="M1028 100q0 -113 -139 -112q-72 0 -127 43q-20 14 -41 43q-98 -86 -281 -86q-180 0 -274 86t-94 233v15q0 145 105.5 228t299.5 83h182v39q0 96 -33.5 141t-121.5 45q-102 0 -185 -45q-53 -29 -93 -11.5t-63.5 50.5t-15 77t53.5 72q117 76 325 76q221 0 315.5 -102.5 t94.5 -335.5v-342q0 -47 12.5 -68.5t40.5 -46.5q39 -35 39 -82zM659 344v90h-149q-164 0 -164 -117v-14q0 -119 154 -119q74 0 116.5 40t42.5 120zM764 1425.5q0 -102.5 -70.5 -173t-173 -70.5t-173.5 70.5t-71 173t71 173t173.5 70.5t173 -70.5t70.5 -173zM639 1425.5 q0 49.5 -35 84t-84 34.5t-84 -34.5t-35 -84t35 -84t84 -34.5t84 34.5t35 84z"/>
<glyph unicode="æ" horiz-adv-x="1609" d="M1522 541q0 -41 -28 -70t-69 -29h-489v-34q0 -195 170 -195q121 0 229 45q43 16 83 -4.5t52.5 -65.5t-4 -81.5t-55.5 -53.5q-143 -66 -319 -65q-209 0 -320 123q-102 -123 -332 -123q-180 0 -274 86t-94 233v19q0 145 105.5 227t299.5 82h182v37q0 96 -33.5 141 t-121.5 45q-102 0 -185 -45q-55 -25 -97 -10.5t-64 55.5q-18 33 -9 75t52 68q117 76 325 76q199 0 295 -92q102 92 273 92q219 0 323.5 -125t104.5 -319v-92zM1255 635v45q0 182 -157 182q-162 0 -162 -182v-45h319zM659 344v98h-149q-164 0 -164 -118v-21q0 -119 154 -119 q74 0 116.5 40t42.5 120z"/>
<glyph unicode="ç" horiz-adv-x="919" d="M856 877q-16 -45 -58 -61.5t-81 1.5q-72 33 -156 33t-131 -58.5t-47 -164.5v-189q0 -106 43 -165.5t125 -59.5q88 0 166 35q39 18 82 0.5t57 -62.5q29 -94 -57 -139q-92 -51 -221 -57v-68q106 0 159.5 -45t53.5 -119q0 -78 -66 -124t-180 -46q-152 0 -152 68q0 49 94 49 q119 0 119 62q0 51 -88 57q-45 4 -62.5 19.5t-13.5 50.5l9 100q-176 25 -261.5 146.5t-85.5 314.5v141q0 209 113 345t318 136q166 0 268 -59q88 -51 53 -141z"/>
<glyph unicode="è" horiz-adv-x="1054" d="M965 545q0 -41 -28 -70t-67 -29h-489v-38q0 -195 170 -195q117 0 229 45q41 16 81 -4.5t52 -65.5q29 -96 -57 -135q-143 -66 -321 -65q-223 0 -327 125t-104 323v191q0 193 110 321.5t323 128.5q219 0 323.5 -125t104.5 -319v-88zM698 653v27q0 182 -155 182 q-162 0 -162 -182v-27h317zM436 1636q27 14 56 15q68 0 98 -64l112 -231q12 -25 13 -47q0 -55 -60 -84q-25 -10 -41 -11q-53 0 -88 58l-135 219q-16 27 -16 53q0 57 61 92z"/>
<glyph unicode="é" horiz-adv-x="1054" d="M965 545q0 -41 -28 -70t-67 -29h-489v-38q0 -195 170 -195q117 0 229 45q41 16 81 -4.5t52 -65.5q29 -96 -57 -135q-143 -66 -321 -65q-223 0 -327 125t-104 323v191q0 193 110 321.5t323 128.5q219 0 323.5 -125t104.5 -319v-88zM698 653v27q0 182 -155 182 q-162 0 -162 -182v-27h317zM651 1636q61 -35 62 -92q0 -27 -17 -53l-135 -219q-35 -57 -88 -58q-16 0 -41 11q-59 29 -59 84q0 23 12 47l113 231q31 63 98 64q28 -1 55 -15z"/>
<glyph unicode="ê" horiz-adv-x="1054" d="M965 545q0 -41 -28 -70t-67 -29h-489v-38q0 -195 170 -195q117 0 229 45q41 16 81 -4.5t52 -65.5q29 -96 -57 -135q-143 -66 -321 -65q-223 0 -327 125t-104 323v191q0 193 110 321.5t323 128.5q219 0 323.5 -125t104.5 -319v-88zM698 653v27q0 182 -155 182 q-162 0 -162 -182v-27h317zM530 1632q39 -2 78 -30l219 -193q41 -33 41 -78q0 -35 -24 -65q-33 -39 -74 -39q-33 0 -68 24l-172 131l-172 -131q-33 -20 -65 -20q-45 0 -76 39q-25 35 -24 67q0 43 40 78l220 187q38 30 77 30z"/>
<glyph unicode="ë" horiz-adv-x="1054" d="M965 545q0 -41 -28 -70t-67 -29h-489v-38q0 -195 170 -195q117 0 229 45q41 16 81 -4.5t52 -65.5q29 -96 -57 -135q-143 -66 -321 -65q-223 0 -327 125t-104 323v191q0 193 110 321.5t323 128.5q219 0 323.5 -125t104.5 -319v-88zM698 653v27q0 182 -155 182 q-162 0 -162 -182v-27h317zM199 1382.5q0 59.5 40 99.5t97 40t98 -40t41 -100q0 -57 -40 -97t-99 -40q-57 0 -97 39t-40 98.5zM588 1382.5q0 59.5 40 99.5t97 40t98 -40t41 -100q0 -57 -40 -97t-99 -40q-57 0 -97 39t-40 98.5z"/>
<glyph unicode="ì" horiz-adv-x="548" d="M412 125q0 -57 -41 -97t-99 -40q-55 0 -96 40t-41 97v813q0 57 41 98t96 41q57 0 98.5 -41t41.5 -98v-813zM168 1636q27 14 55 15q68 0 99 -64l112 -231q12 -25 12 -47q0 -55 -59 -84q-25 -10 -41 -11q-53 0 -88 58l-135 219q-16 27 -17 53q1 57 62 92z"/>
<glyph unicode="í" horiz-adv-x="548" d="M412 125q0 -57 -41 -97t-99 -40q-55 0 -96 40t-41 97v813q0 57 41 98t96 41q57 0 98.5 -41t41.5 -98v-813zM385 1636q61 -35 61 -92q0 -27 -16 -53l-135 -219q-35 -57 -88 -58q-16 0 -41 11q-59 29 -60 84q0 23 13 47l112 231q31 63 99 64q28 -1 55 -15z"/>
<glyph unicode="î" horiz-adv-x="548" d="M412 125q0 -57 -41 -97t-99 -40q-55 0 -96 40t-41 97v813q0 57 41 98t96 41q57 0 98.5 -41t41.5 -98v-813zM274 1632q39 -2 78 -30l219 -193q41 -33 41 -78q0 -35 -24 -65q-33 -39 -74 -39q-35 0 -68 24l-172 131l-172 -131q-33 -20 -65 -20q-45 0 -76 39q-25 35 -24 67 q0 43 40 78l220 187q38 30 77 30z"/>
<glyph unicode="ï" horiz-adv-x="548" d="M412 125q0 -57 -41 -97t-99 -40q-55 0 -96 40t-41 97v813q0 57 41 98t96 41q57 0 98.5 -41t41.5 -98v-813zM-55 1382.5q0 59.5 40 99.5t97 40t98 -40t41 -100q0 -57 -40 -97t-99 -40q-57 0 -97 39t-40 98.5zM334 1382.5q0 59.5 40 99.5t97 40t98 -40t41 -100 q0 -57 -40 -97t-99 -40q-57 0 -97 39t-40 98.5z"/>
<glyph unicode="ð" horiz-adv-x="1171" d="M1069 496q0 -248 -137 -381t-348 -133q-213 0 -347.5 133t-134.5 346q0 209 138.5 326.5t316.5 117.5q55 0 117 -20q-63 115 -162 211l-115 -86q-33 -25 -74.5 -19t-66.5 39q-27 35 -20.5 76t40.5 68l76 57l-30 24q-59 43 -60 111q0 59 40 100t97 41q43 0 82 -26 q35 -25 101 -78l114 86q35 27 76 20.5t68 -39.5q25 -33 18.5 -74.5t-39.5 -68.5l-84 -63q334 -346 334 -768zM793 496q0 70 -13 133q-72 47 -178 47q-88 0 -155.5 -60.5t-67.5 -154.5q0 -100 53 -164t152 -64q94 0 151.5 64t57.5 199z"/>
<glyph unicode="ñ" horiz-adv-x="1167" d="M1032 125q0 -57 -41 -97t-98 -40t-97 40t-40 97v532q0 74 -31 117t-113 43q-111 0 -172 -84v-608q0 -57 -40 -97t-97 -40t-98 40t-41 97v629q0 33 -10.5 56.5t-18.5 31.5t-31 28q-39 29 -38 80q0 115 137 115q68 0 131 -45q27 -25 45 -53q117 111 309 110q344 0 344 -387 v-565zM952 1456q2 -88 -66.5 -137t-154.5 -51q-63 -2 -142 40t-120 42q-39 0 -75 -33t-70 -33q-39 0 -68 34t-29 83q-2 86 66.5 137t155.5 53q63 2 142 -42t120 -44q39 0 73.5 33t71.5 33q39 2 67.5 -33t28.5 -82z"/>
<glyph unicode="ò" horiz-adv-x="1089" d="M985 422q0 -190 -111.5 -312t-328.5 -122t-329 121.5t-112 312.5v219q0 190 112 313t329 123t328.5 -123t111.5 -313v-219zM709 424v215q0 188 -164 188q-162 0 -162 -188v-215q0 -188 162 -188q164 0 164 188zM446 1636q27 14 56 15q68 0 98 -64l113 -231q12 -25 12 -47 q0 -55 -59 -84q-25 -10 -41 -11q-53 0 -88 58l-136 219q-16 27 -16 53q0 57 61 92z"/>
<glyph unicode="ó" horiz-adv-x="1089" d="M985 422q0 -190 -111.5 -312t-328.5 -122t-329 121.5t-112 312.5v219q0 190 112 313t329 123t328.5 -123t111.5 -313v-219zM709 424v215q0 188 -164 188q-162 0 -162 -188v-215q0 -188 162 -188q164 0 164 188zM651 1636q61 -35 62 -92q0 -27 -17 -53l-135 -219 q-35 -57 -88 -58q-16 0 -41 11q-59 29 -59 84q0 23 12 47l113 231q31 63 98 64q28 -1 55 -15z"/>
<glyph unicode="ô" horiz-adv-x="1089" d="M985 422q0 -190 -111.5 -312t-328.5 -122t-329 121.5t-112 312.5v219q0 190 112 313t329 123t328.5 -123t111.5 -313v-219zM709 424v215q0 188 -164 188q-162 0 -162 -188v-215q0 -188 162 -188q164 0 164 188zM543 1632q39 -2 78 -30l219 -193q41 -33 41 -78 q0 -35 -25 -65q-33 -39 -74 -39q-33 0 -67 24l-172 131l-172 -131q-33 -20 -66 -20q-45 0 -76 39q-25 35 -24 67q0 43 41 78l219 187q39 30 78 30z"/>
<glyph unicode="õ" horiz-adv-x="1089" d="M985 422q0 -190 -111.5 -312t-328.5 -122t-329 121.5t-112 312.5v219q0 190 112 313t329 123t328.5 -123t111.5 -313v-219zM709 424v215q0 188 -164 188q-162 0 -162 -188v-215q0 -188 162 -188q164 0 164 188zM913 1456q2 -88 -66.5 -137t-154.5 -51q-63 -2 -142 40 t-120 42q-39 0 -75 -33t-70 -33q-39 0 -68 34t-29 83q-2 86 67 137t155 53q63 2 142 -42t120 -44q39 0 73.5 33t71.5 33q39 2 67.5 -33t28.5 -82z"/>
<glyph unicode="ö" horiz-adv-x="1089" d="M985 422q0 -190 -111.5 -312t-328.5 -122t-329 121.5t-112 312.5v219q0 190 112 313t329 123t328.5 -123t111.5 -313v-219zM709 424v215q0 188 -164 188q-162 0 -162 -188v-215q0 -188 162 -188q164 0 164 188zM211 1382.5q0 59.5 40 99.5t97.5 40t98 -40t40.5 -100 q0 -57 -39.5 -97t-99.5 -40q-57 0 -97 39t-40 98.5zM600 1382.5q0 59.5 40 99.5t97.5 40t98.5 -40t41 -100q0 -57 -40 -97t-100 -40q-57 0 -97 39t-40 98.5z"/>
<glyph unicode="÷" horiz-adv-x="1280" d="M803 1007.5q0 -67.5 -47 -115.5t-117 -48q-68 0 -115 48t-47 115.5t47 115.5t115 48q70 0 117 -48t47 -115.5zM1112 592q0 -51 -38 -89t-89 -38h-690q-53 0 -90 38t-37 89t37 89t90 38h690q51 0 89 -38t38 -89zM803 176.5q0 -67.5 -47 -116t-117 -48.5q-68 0 -115 48.5 t-47 116t47 115.5t115 48q70 0 117 -48t47 -115.5z"/>
<glyph unicode="ø" horiz-adv-x="1089" d="M985 422q0 -190 -111.5 -312t-328.5 -122q-94 0 -166 24l-35 -75q-10 -23 -32.5 -32t-45.5 1q-23 8 -32 32.5t2 47.5l34 77q-166 117 -166 359v219q0 190 112 313t329 123q84 0 168 -24l32 73q10 23 34 32t46 -1q23 -8 32 -31.5t-1 -46.5l-35 -80q164 -113 164 -358v-219 zM608 819q-25 8 -63 8q-162 0 -162 -188v-215q0 -49 18 -70zM709 424v215q0 45 -19 70l-207 -465q23 -8 62 -8q164 0 164 188z"/>
<glyph unicode="ù" horiz-adv-x="1171" d="M1106 100q0 -113 -139 -112q-72 0 -129 45q-25 18 -52 59q-115 -104 -303 -104q-176 0 -260 101t-84 282v567q0 57 40 98t97.5 41t98.5 -41t41 -98v-532q0 -78 29.5 -119t113.5 -41q109 0 170 88v604q0 57 41 98t98.5 41t97.5 -41t40 -98v-641q0 -33 10 -56.5t18 -30.5 l33 -28q39 -35 39 -82zM461 1636q27 14 55 15q68 0 98 -64l113 -231q12 -25 12 -47q0 -55 -59 -84q-25 -10 -41 -11q-53 0 -88 58l-135 219q-16 27 -17 53q1 57 62 92z"/>
<glyph unicode="ú" horiz-adv-x="1171" d="M1106 100q0 -113 -139 -112q-72 0 -129 45q-25 18 -52 59q-115 -104 -303 -104q-176 0 -260 101t-84 282v567q0 57 40 98t97.5 41t98.5 -41t41 -98v-532q0 -78 29.5 -119t113.5 -41q109 0 170 88v604q0 57 41 98t98.5 41t97.5 -41t40 -98v-641q0 -33 10 -56.5t18 -30.5 l33 -28q39 -35 39 -82zM680 1636q61 -35 61 -92q0 -27 -16 -53l-135 -219q-35 -57 -88 -58q-16 0 -41 11q-59 29 -60 84q0 23 13 47l112 231q31 63 99 64q28 -1 55 -15z"/>
<glyph unicode="û" horiz-adv-x="1171" d="M1106 100q0 -113 -139 -112q-72 0 -129 45q-25 18 -52 59q-115 -104 -303 -104q-176 0 -260 101t-84 282v567q0 57 40 98t97.5 41t98.5 -41t41 -98v-532q0 -78 29.5 -119t113.5 -41q109 0 170 88v604q0 57 41 98t98.5 41t97.5 -41t40 -98v-641q0 -33 10 -56.5t18 -30.5 l33 -28q39 -35 39 -82zM569 1632q39 -2 78 -30l219 -193q41 -33 41 -78q0 -35 -24 -65q-33 -39 -74 -39q-35 0 -68 24l-172 131l-172 -131q-33 -20 -65 -20q-45 0 -76 39q-25 35 -25 67q0 43 41 78l220 187q38 30 77 30z"/>
<glyph unicode="ü" horiz-adv-x="1171" d="M1106 100q0 -113 -139 -112q-72 0 -129 45q-25 18 -52 59q-115 -104 -303 -104q-176 0 -260 101t-84 282v567q0 57 40 98t97.5 41t98.5 -41t41 -98v-532q0 -78 29.5 -119t113.5 -41q109 0 170 88v604q0 57 41 98t98.5 41t97.5 -41t40 -98v-641q0 -33 10 -56.5t18 -30.5 l33 -28q39 -35 39 -82zM246 1382.5q0 59.5 40 99.5t97 40q59 0 99 -40t40 -100q0 -57 -40 -97t-99 -40t-98 39t-39 98.5zM635 1382.5q0 59.5 40 99.5t97 40q59 0 99 -40t40 -100q0 -57 -40 -97t-99 -40t-98 39t-39 98.5z"/>
<glyph unicode="ý" horiz-adv-x="970" d="M926 893l-260 -741q-94 -262 -213 -387t-310 -140q-70 -6 -111.5 36t-41.5 99q0 51 30.5 88t92.5 43q74 6 132 37t109 115q-209 516 -317 866q-23 72 21 120t110 48q92 0 117 -94q117 -373 198 -598l191 600q27 92 125 92q70 0 113 -54t14 -130zM616 1636q61 -35 62 -92 q0 -27 -16 -53l-136 -219q-35 -57 -88 -58q-16 0 -41 11q-59 29 -59 84q0 23 12 47l113 231q31 63 98 64q28 -1 55 -15z"/>
<glyph unicode="þ" horiz-adv-x="1103" d="M999 467q0 -238 -88 -360.5t-288 -122.5q-119 0 -215 59v-285q0 -57 -40 -97t-100 -40q-55 0 -96 40t-41 97v1616q0 57 41 98t96 41q57 0 98.5 -40.5t41.5 -98.5v-348q92 45 196 45q395 0 395 -438v-166zM721 416v239q0 94 -38 139.5t-126 45.5q-76 0 -149 -58v-503 q70 -63 151 -64q162 0 162 201z"/>
<glyph unicode="ÿ" horiz-adv-x="968" d="M926 893l-260 -741q-94 -262 -213 -387t-310 -140q-70 -6 -111.5 36t-41.5 99q0 51 30.5 88t92.5 43q74 6 132 37t109 115q-209 516 -317 866q-23 72 21 120t110 48q92 0 117 -94q117 -373 198 -598l191 600q27 92 125 92q70 0 113 -54t14 -130zM150 1382.5 q0 59.5 39.5 99.5t97 40t98.5 -40t41 -100q0 -57 -40 -97t-99 -40q-57 0 -97 39t-40 98.5zM539 1382.5q0 59.5 39.5 99.5t97 40t98.5 -40t41 -100q0 -57 -40 -97t-99 -40q-57 0 -97 39t-40 98.5z"/>
<glyph unicode="Œ" horiz-adv-x="1918" d="M1849 135q0 -57 -40 -96t-95 -39h-663q-68 0 -109 53q-109 -74 -278 -73q-143 0 -251 46t-167.5 126.5t-87 176t-27.5 206.5v423q0 111 27.5 206.5t87 175t167 125.5t251.5 46q174 0 278 -71q41 53 109 53h637q55 0 95 -40t40 -95t-40 -95t-95 -40h-490v-346h442 q55 0 93.5 -39t38.5 -92.5t-38 -91.5t-94 -38h-442v-348h516q55 0 95 -39t40 -94zM915 535v423q0 141 -56 219t-195.5 78t-195.5 -76.5t-56 -220.5v-423q0 -143 56 -221t195.5 -78t195.5 78t56 221z"/>
<glyph unicode="œ" horiz-adv-x="1656" d="M1569 547q0 -43 -28 -70.5t-68 -27.5h-490v-41q4 -195 170 -195q121 0 229 45q43 16 83 -4.5t53 -65.5q27 -96 -58 -137q-152 -63 -321 -63q-186 0 -295 104q-109 -104 -299 -104q-217 0 -329 121.5t-112 312.5v219q0 190 112 313t329 123q190 0 303 -108 q113 109 293 108q219 0 323.5 -125t104.5 -321v-84zM1303 653v27q0 182 -156 182q-164 0 -164 -182v-27h320zM709 424v215q0 188 -164 188q-162 0 -162 -188v-215q0 -188 162 -188q164 0 164 188z"/>
<glyph unicode="Ÿ" horiz-adv-x="1075" d="M1075 1378q0 -23 -14 -59q-150 -338 -383 -770v-426q0 -57 -42 -99t-99 -42q-59 0 -100.5 40.5t-41.5 100.5v426q-231 426 -381 766q-14 29 -14 59q0 59 45 98t102 39q82 0 121 -84q98 -231 273 -563q174 336 274 566q39 82 119 81q55 0 98 -38t43 -95zM205 1798 q0 59 40 99t97 40q59 0 99 -41t40 -98t-40 -97t-99 -40t-98 40t-39 97zM594 1798q0 59 40 99t97 40q59 0 99 -41t40 -98t-39.5 -97t-99 -40t-98.5 40t-39 97z"/>
<glyph unicode="ˆ" horiz-adv-x="1085" d="M543 1632q39 -2 78 -30l219 -193q41 -33 41 -78q0 -35 -25 -65q-33 -39 -74 -39q-33 0 -67 24l-172 131l-172 -131q-33 -20 -66 -20q-45 0 -76 39q-25 35 -24 67q0 43 41 78l219 187q39 30 78 30z"/>
<glyph unicode="˜" horiz-adv-x="1085" d="M905 1456q2 -88 -66.5 -137t-154.5 -51q-63 -2 -142 40t-120 42q-39 0 -75 -33t-71 -33q-39 0 -67.5 34t-28.5 83q-2 86 66.5 137t154.5 53q63 2 142.5 -42t120.5 -44q39 0 73.5 33t71.5 33q39 2 67.5 -33t28.5 -82z"/>
<glyph unicode=" " horiz-adv-x="1040"/>
<glyph unicode=" " horiz-adv-x="2080"/>
<glyph unicode=" " horiz-adv-x="1040"/>
<glyph unicode=" " horiz-adv-x="2080"/>
<glyph unicode=" " horiz-adv-x="692"/>
<glyph unicode=" " horiz-adv-x="520"/>
<glyph unicode=" " horiz-adv-x="346"/>
<glyph unicode=" " horiz-adv-x="346"/>
<glyph unicode=" " horiz-adv-x="260"/>
<glyph unicode=" " horiz-adv-x="415"/>
<glyph unicode=" " horiz-adv-x="114"/>
<glyph unicode="‐" horiz-adv-x="1042" d="M920 602q0 -53 -38 -90t-89 -37h-543q-53 0 -90 37t-37 90q0 51 37 88t90 37h543q51 0 89 -37t38 -88z"/>
<glyph unicode="‑" horiz-adv-x="1042" d="M920 602q0 -53 -38 -90t-89 -37h-543q-53 0 -90 37t-37 90q0 51 37 88t90 37h543q51 0 89 -37t38 -88z"/>
<glyph unicode="‒" horiz-adv-x="1042" d="M920 602q0 -53 -38 -90t-89 -37h-543q-53 0 -90 37t-37 90q0 51 37 88t90 37h543q51 0 89 -37t38 -88z"/>
<glyph unicode="–" horiz-adv-x="1024" d="M1024 590q0 -51 -37 -88t-90 -37h-770q-53 0 -90 37t-37 88q0 53 37 91t90 38h770q53 0 90 -38t37 -91z"/>
<glyph unicode="—" horiz-adv-x="2048" d="M2048 590q0 -51 -37 -88t-90 -37h-1794q-53 0 -90 37t-37 88q0 53 37 91t90 38h1794q53 0 90 -38t37 -91z"/>
<glyph unicode="‘" horiz-adv-x="526" d="M428 1122q0 -68 -48 -113.5t-116 -45.5q-74 0 -120 52t-46 136q0 150 101.5 256t162.5 106q23 0 40.5 -17t17.5 -42q0 -29 -51.5 -72t-63.5 -104q53 -14 88 -57.5t35 -98.5z"/>
<glyph unicode="’" horiz-adv-x="526" d="M428 1323q0 -150 -101.5 -255t-162.5 -105q-25 0 -41.5 16t-16.5 43q0 25 24 45t52.5 52t38.5 79q-53 14 -88 57t-35 99q0 68 47.5 113.5t114.5 45.5q74 0 121 -53t47 -137z"/>
<glyph unicode="‚" horiz-adv-x="526" d="M428 119q0 -150 -101.5 -255.5t-162.5 -105.5q-25 0 -42.5 16.5t-17.5 41.5q0 29 51.5 71.5t65.5 104.5q-53 14 -88 57t-35 98q0 68 48.5 114t115.5 46q74 0 120 -52t46 -136z"/>
<glyph unicode="“" horiz-adv-x="976" d="M879 1122q0 -68 -48.5 -113.5t-115.5 -45.5q-72 0 -118 52t-46 136q0 150 101.5 256t162.5 106q23 0 40 -17t17 -42q0 -27 -23.5 -46t-53 -51t-39.5 -79q53 -14 88 -57.5t35 -98.5zM428 1122q0 -68 -48 -113.5t-116 -45.5q-74 0 -120 52t-46 136q0 150 101.5 256 t162.5 106q23 0 40.5 -17t17.5 -42q0 -29 -51.5 -72t-63.5 -104q53 -14 88 -57.5t35 -98.5z"/>
<glyph unicode="”" horiz-adv-x="976" d="M879 1323q0 -150 -101.5 -255t-163.5 -105q-23 0 -40 17t-17 42t23.5 45t52.5 52t39 79q-51 14 -86 57t-35 99q0 68 47 113.5t115 45.5q72 0 119 -53t47 -137zM428 1323q0 -150 -101.5 -255t-162.5 -105q-25 0 -41.5 16t-16.5 43q0 25 24 45t52.5 52t38.5 79 q-53 14 -88 57t-35 99q0 68 47.5 113.5t114.5 45.5q74 0 121 -53t47 -137z"/>
<glyph unicode="„" horiz-adv-x="972" d="M874 119q0 -150 -101 -255.5t-163 -105.5q-23 0 -40 16.5t-17 41.5q0 29 51 71.5t66 104.5q-55 14 -89 57t-34 98q0 68 47 114t115 46q74 0 119.5 -52t45.5 -136zM428 119q0 -150 -101.5 -255.5t-162.5 -105.5q-25 0 -42.5 16.5t-17.5 41.5q0 29 51.5 71.5t65.5 104.5 q-53 14 -88 57t-35 98q0 68 48.5 114t115.5 46q74 0 120 -52t46 -136z"/>
<glyph unicode="•" horiz-adv-x="1021" d="M817 686q0 -145 -103.5 -248.5t-249 -103.5t-248.5 103.5t-103 248.5t103 248.5t248.5 103.5t249 -103.5t103.5 -248.5z"/>
<glyph unicode="…" horiz-adv-x="1857" d="M1538 -18q-82 0 -139.5 57t-57.5 139t57.5 139.5t139.5 57.5q80 0 137.5 -57.5t57.5 -139.5t-57.5 -139t-137.5 -57zM928 -18q-82 0 -139.5 57t-57.5 139t57.5 139.5t139.5 57.5t139 -57.5t57 -139.5t-57 -139t-139 -57zM319.5 -18q-81.5 0 -139 57t-57.5 139t57.5 139.5 t139 57.5t139 -57.5t57.5 -139.5t-57.5 -139t-139 -57z"/>
<glyph unicode=" " horiz-adv-x="415"/>
<glyph unicode="‹" horiz-adv-x="774" d="M645 281q35 -37 35 -89.5t-39 -87.5q-37 -37 -89 -35.5t-89 37.5l-363 375q-37 41 -37 88t37 88l363 373q37 39 89 40t89 -36q39 -35 39 -87t-35 -91l-278 -287z"/>
<glyph unicode="›" horiz-adv-x="774" d="M711 569q0 -47 -37 -88l-363 -375q-37 -37 -89 -37.5t-89 35.5q-39 35 -39 87.5t35 89.5l277 288l-277 287q-35 39 -35 91t39 87q37 37 89 36t89 -40l363 -373q37 -41 37 -88z"/>
<glyph unicode=" " horiz-adv-x="520"/>
<glyph unicode="€" d="M1098 195q0 -61 -56 -109q-57 -49 -151 -76.5t-174 -27.5q-475 0 -533 505h-39q-39 0 -67.5 29t-28.5 68t28.5 67.5t67.5 28.5h29v129h-29q-39 0 -67.5 27.5t-28.5 68.5q0 39 28.5 66.5t67.5 27.5h37q63 512 537 512q199 0 317 -96q59 -49 60 -104q0 -49 -34 -87t-95 -38 q-33 -2 -90 31q-66 41 -158 40q-109 0 -169.5 -62t-80.5 -196h244q39 0 67.5 -27.5t28.5 -66.5q0 -41 -27.5 -68.5t-68.5 -27.5h-256v-129h256q41 0 68.5 -28.5t27.5 -67.5t-27.5 -68t-68.5 -29h-244q18 -133 78.5 -191t169.5 -58q96 0 176 45q53 31 88 30q49 0 83 -33.5 t34 -84.5z"/>
<glyph unicode="™" horiz-adv-x="1470" d="M1348 813q0 -29 -20.5 -49.5t-49.5 -20.5q-31 0 -51.5 20.5t-20.5 49.5v340l-123 -254q-23 -43 -67 -43q-49 0 -70 43l-123 254v-340q0 -29 -20.5 -49.5t-48.5 -20.5q-31 0 -51.5 20.5t-20.5 49.5v586q0 31 21.5 51t52.5 20q51 0 71 -45l189 -381l186 381q23 45 74 45 q31 0 51.5 -20t20.5 -51v-586zM629 1386.5q0 -30.5 -21.5 -52t-54.5 -21.5h-133v-494q0 -33 -21.5 -54.5t-54.5 -21.5t-54.5 21.5t-21.5 54.5v494h-131q-31 0 -53.5 21.5t-22.5 52t21.5 53t54.5 22.5h416q33 0 54.5 -22.5t21.5 -53z"/>
<glyph unicode="" horiz-adv-x="1075" d="M0 1075h1075v-1075h-1075v1075z"/>
<glyph unicode="ﬁ" horiz-adv-x="1175" d="M1030 125q0 -57 -41 -97t-98 -40t-97 40t-40 97v813q0 57 40 98t97 41t98 -41t41 -98v-813zM686 1382q0 -51 -34 -86.5t-85 -35.5h-22q-59 0 -81 -29t-22 -98v-68h93q47 0 79.5 -33t32.5 -80t-32.5 -80.5t-79.5 -33.5h-93v-713q0 -57 -41 -97t-98 -40t-97 40t-40 97v713 h-31q-47 0 -79.5 33.5t-32.5 80.5t32.5 80t79.5 33h31v92q0 145 79 244.5t244 99.5h78q49 0 84 -35t35 -84zM1057 1368.5q0 -65.5 -46 -111t-112 -45.5q-63 0 -109.5 45.5t-46.5 111t45.5 111.5t111 46t111.5 -46t46 -111.5z"/>
<glyph unicode="ﬂ" horiz-adv-x="1185" d="M1122 100q0 -113 -139 -112q-72 0 -129 45q-106 78 -106 241v1072q0 57 39.5 97t97 40t97.5 -40t40 -97v-1049q0 -33 10 -56.5t19 -30.5l32 -28q39 -31 39 -82zM686 1382q0 -51 -34 -86.5t-85 -35.5h-22q-59 0 -81 -29t-22 -98v-68h93q47 0 79.5 -33t32.5 -80 t-32.5 -80.5t-79.5 -33.5h-93v-713q0 -57 -41 -97t-98 -40t-97 40t-40 97v713h-31q-47 0 -79.5 33.5t-32.5 80.5t32.5 80t79.5 33h31v92q0 145 79 244.5t244 99.5h78q49 0 84 -35t35 -84z"/>
<glyph unicode="ﬃ" horiz-adv-x="2064" d="M1946 1368.5q0 -65.5 -46 -111t-112 -45.5q-63 0 -109 45.5t-46 111t45 111.5t110.5 46t111.5 -46t46 -111.5zM1928 125q0 -57 -41 -97t-99 -40q-55 0 -96 40t-41 97v813q0 57 41 98t96 41q57 0 98.5 -41t41.5 -98v-813zM1538 1380q0 -49 -35.5 -84.5t-87.5 -35.5h-61 q-80 0 -117 -39t-37 -127v-29h129q47 0 81 -34t34 -81t-34 -79.5t-81 -32.5h-129v-713q0 -57 -41 -97t-98 -40t-97 40t-40 97v713h-31q-45 0 -78.5 33.5t-33.5 78.5q0 47 32.5 81t79.5 34h31v29q0 195 100.5 302t292.5 107h98q51 0 87 -36t36 -87zM780 1380 q0 -49 -35.5 -84.5t-87.5 -35.5h-61q-80 0 -117 -39t-37 -127v-29h129q47 0 81 -34t34 -81t-34 -79.5t-81 -32.5h-129v-713q0 -57 -41 -97t-98 -40t-97 40t-40 97v713h-31q-45 0 -78.5 33.5t-33.5 78.5q0 47 32.5 81t79.5 34h31v29q0 195 100.5 302t292.5 107h98 q51 0 87 -36t36 -87z"/>
<glyph unicode="ﬄ" horiz-adv-x="2082" d="M2020 100q0 -113 -139 -112q-72 0 -129 45q-109 80 -109 241v1072q0 57 41 97t98.5 40t98.5 -40t41 -97v-1049q0 -33 9 -56.5t18 -31.5t32 -27q39 -35 39 -82zM1538 1380q0 -49 -35.5 -84.5t-87.5 -35.5h-61q-80 0 -117 -39t-37 -127v-29h129q47 0 81 -34t34 -81 t-34 -79.5t-81 -32.5h-129v-713q0 -57 -41 -97t-98 -40t-97 40t-40 97v713h-31q-45 0 -78.5 33.5t-33.5 78.5q0 47 32.5 81t79.5 34h31v29q0 195 100.5 302t292.5 107h98q51 0 87 -36t36 -87zM780 1380q0 -49 -35.5 -84.5t-87.5 -35.5h-61q-80 0 -117 -39t-37 -127v-29h129 q47 0 81 -34t34 -81t-34 -79.5t-81 -32.5h-129v-713q0 -57 -41 -97t-98 -40t-97 40t-40 97v713h-31q-45 0 -78.5 33.5t-33.5 78.5q0 47 32.5 81t79.5 34h31v29q0 195 100.5 302t292.5 107h98q51 0 87 -36t36 -87z"/>
</font>
</defs>
</svg>
